<svg version="1.1" id="Layer_1" xmlns="http://www.w3.org/2000/svg" xmlns:xlink="http://www.w3.org/1999/xlink" x="0px" y="0px"
	 width="100%" viewBox="0 0 1076 856" enable-background="new 0 0 1076 856" xml:space="preserve">
<path fill="#171717" opacity="1.000000" stroke="none" 
	d="
M652.000000,857.000000 
	C434.694702,857.000000 217.889404,857.000000 1.042049,857.000000 
	C1.042049,571.731567 1.042049,286.463165 1.042049,1.097382 
	C359.555359,1.097382 718.110718,1.097382 1076.833008,1.097382 
	C1076.833008,286.333252 1076.833008,571.666626 1076.833008,857.000000 
	C935.463074,857.000000 793.981506,857.000000 652.000000,857.000000 
M469.349731,175.753220 
	C466.784882,175.676132 464.220001,175.599045 460.990173,175.475967 
	C460.326263,175.417084 459.662323,175.358200 458.886139,174.650330 
	C458.998779,174.226151 459.111420,173.801971 459.978912,173.321274 
	C460.987518,173.283493 461.996094,173.245697 463.655670,173.654007 
	C467.199127,173.292938 470.742584,172.931885 475.133209,172.488007 
	C477.423584,172.389343 479.713989,172.290665 482.655457,172.636902 
	C486.199890,172.285416 489.744293,171.933929 494.120453,171.492981 
	C496.082245,171.410858 498.044037,171.328735 500.662598,171.705185 
	C504.535645,171.321289 508.408691,170.937393 513.114990,170.471634 
	C515.078430,170.390244 517.041931,170.308853 519.658691,170.692108 
	C523.530945,170.305450 527.403137,169.918777 532.109985,169.453934 
	C534.075134,169.375351 536.040283,169.296768 538.646545,169.681061 
	C542.194458,169.315033 545.742371,168.949020 550.122009,168.496887 
	C552.083374,168.415466 554.044739,168.334045 556.659485,168.718414 
	C560.535217,168.335571 564.410950,167.952728 569.119934,167.493790 
	C571.082153,167.413925 573.044373,167.334061 575.648438,167.717224 
	C579.197021,167.346924 582.745605,166.976624 587.140686,166.529953 
	C589.429077,166.430450 591.717529,166.330933 594.655945,166.700714 
	C598.528259,166.308090 602.400513,165.915466 607.087097,165.443878 
	C608.727051,165.385391 610.367065,165.326904 612.664429,165.737259 
	C616.865540,165.327484 621.066650,164.917709 626.083801,164.440399 
	C627.724792,164.379227 629.365845,164.318039 631.656677,164.727539 
	C635.533203,164.342606 639.409790,163.957672 644.119080,163.489670 
	C646.081543,163.407516 648.044067,163.325348 650.652527,163.719666 
	C654.526672,163.322952 658.400818,162.926239 663.089478,162.456726 
	C664.728760,162.396271 666.368042,162.335815 668.674683,162.748810 
	C672.578918,162.632919 676.483215,162.517029 680.887878,162.692673 
	C681.311523,163.079544 681.735168,163.466431 682.238892,164.702530 
	C682.555603,167.655426 683.148193,170.608215 683.149292,173.561234 
	C683.190979,285.516510 683.178162,397.471802 683.174194,509.427094 
	C683.174133,510.926361 682.906677,512.506531 683.298889,513.898132 
	C683.588440,514.925415 684.789307,516.509033 685.517212,516.473572 
	C692.724670,516.121887 700.235962,516.690796 706.583618,510.871277 
	C707.026611,510.551208 707.469666,510.231140 708.580505,509.910461 
	C709.357727,508.911011 710.134949,507.911591 711.306030,506.342285 
	C712.371887,503.983612 713.437744,501.624939 715.083923,498.790009 
	C715.247925,497.144287 715.555237,495.498596 715.555542,493.852844 
	C715.578491,376.204407 715.581055,258.555969 715.537354,140.907547 
	C715.536682,139.171265 714.935364,137.435211 714.465149,135.136795 
	C714.390137,134.756317 714.315186,134.375824 714.556335,133.538956 
	C713.789734,132.300003 713.023132,131.061035 711.891785,129.315292 
	C710.985962,128.459320 710.080139,127.603340 709.030701,126.125961 
	C708.294739,125.816872 707.558716,125.507774 706.303040,124.963295 
	C705.967041,124.785461 705.631104,124.607635 704.947815,123.803696 
	C699.874878,123.699127 694.801880,123.594551 689.151733,123.578545 
	C688.763611,123.607315 688.375488,123.636086 687.350281,123.245857 
	C684.904236,123.649818 682.458130,124.053780 679.464111,124.541016 
	C679.095947,124.571114 678.727783,124.601204 677.548157,124.253914 
	C675.367004,124.615669 673.185791,124.977432 670.346008,125.433800 
	C669.683960,125.499611 669.021973,125.565414 667.547974,125.253914 
	C665.366943,125.618767 663.185913,125.983627 660.346130,126.443016 
	C659.683533,126.503021 659.020874,126.563026 657.545959,126.247513 
	C655.365601,126.614754 653.185242,126.981987 650.346497,127.443657 
	C649.684387,127.506180 649.022339,127.568703 647.546936,127.258453 
	C645.366333,127.623947 643.185669,127.989449 640.346558,128.450775 
	C639.683716,128.508011 639.020874,128.565231 637.545471,128.247528 
	C635.365356,128.616669 633.185181,128.985809 630.346985,129.450836 
	C629.684814,129.511108 629.022583,129.571396 627.548340,129.254990 
	C625.367249,129.623550 623.186096,129.992111 620.346924,130.454254 
	C619.685181,130.515732 619.023376,130.577225 617.551758,130.257233 
	C615.369446,130.625290 613.187195,130.993362 610.346313,131.452347 
	C609.684326,131.512131 609.022339,131.571915 607.548889,131.254379 
	C605.367554,131.623596 603.186218,131.992813 600.346863,132.454773 
	C599.685059,132.514374 599.023193,132.573990 597.549744,132.255768 
	C595.368164,132.625961 593.186584,132.996170 590.345764,133.455627 
	C589.682739,133.508408 589.019775,133.561188 587.541260,133.250641 
	C585.362427,133.621338 583.183594,133.992035 580.346680,134.454971 
	C579.684998,134.514542 579.023315,134.574112 577.550354,134.255936 
	C575.368530,134.626740 573.186707,134.997543 570.346436,135.456573 
	C569.684814,135.515625 569.023254,135.574677 567.550354,135.255966 
	C565.368591,135.628586 563.186890,136.001205 560.345764,136.463898 
	C559.682129,136.510849 559.018433,136.557816 557.538574,136.244537 
	C555.360596,136.617966 553.182617,136.991394 550.345703,137.448425 
	C549.684509,137.510437 549.023315,137.572449 547.586975,137.258347 
	C545.292908,137.638596 542.998901,138.018845 540.028442,138.495468 
	C539.347839,138.554031 538.667175,138.612595 537.405884,138.255173 
	C535.172302,138.636780 532.938782,139.018387 530.028503,139.495667 
	C529.347778,139.554550 528.667053,139.613434 527.403931,139.260803 
	C525.171204,139.640762 522.938416,140.020721 520.028809,140.495895 
	C519.348145,140.556259 518.667419,140.616623 517.377991,140.257278 
	C515.253601,140.631851 513.129211,141.006439 510.346588,141.465469 
	C509.685425,141.522186 509.024292,141.578888 507.553009,141.257645 
	C505.370148,141.630905 503.187317,142.004150 500.346710,142.465149 
	C499.685638,142.522461 499.024597,142.579788 497.584259,142.262375 
	C495.723541,142.601456 493.862823,142.940536 491.334839,143.365677 
	C490.218719,143.470215 489.102600,143.574738 487.410004,143.259109 
	C485.607422,143.600494 483.804871,143.941895 481.335541,144.373047 
	C480.219177,144.475113 479.102844,144.577179 477.409943,144.259125 
	C475.607391,144.602432 473.804810,144.945755 471.335083,145.374893 
	C470.218872,145.476349 469.102661,145.577789 467.406433,145.266525 
	C465.605011,145.608032 463.803558,145.949539 461.334900,146.376144 
	C460.218719,146.477768 459.102570,146.579391 457.410156,146.261673 
	C455.607513,146.604767 453.804840,146.947876 451.276978,147.381119 
	C450.306915,147.470184 449.336853,147.559235 447.588348,147.270752 
	C445.726288,147.612717 443.864227,147.954681 441.276550,148.382553 
	C440.306641,148.471146 439.336731,148.559723 437.588806,148.270798 
	C435.726562,148.611542 433.864319,148.952271 431.337402,149.374817 
	C430.669861,149.427933 430.002289,149.481033 428.519653,149.183701 
	C426.347107,149.554077 424.174530,149.924454 421.337952,150.377655 
	C420.671082,150.432861 420.004181,150.488068 418.523346,150.189789 
	C416.349518,150.558762 414.175659,150.927734 411.337921,151.378876 
	C410.671295,151.433899 410.004639,151.488907 408.523163,151.193802 
	C406.349396,151.561432 404.175598,151.929077 401.337982,152.379242 
	C400.671326,152.434143 400.004700,152.489029 398.524414,152.190109 
	C396.350189,152.559616 394.175995,152.929123 391.337097,153.378586 
	C390.669678,153.430450 390.002289,153.482315 388.519012,153.183990 
	C386.346710,153.563217 384.174408,153.942429 381.449036,154.410355 
	C381.078491,154.456161 380.707916,154.501984 379.680939,154.241653 
	C378.024139,154.979675 376.367310,155.717682 374.078094,156.768219 
	C371.333557,158.806427 368.589020,160.844635 365.171906,163.063278 
	C364.390289,166.710068 363.608673,170.356857 362.843231,174.940262 
	C362.843628,295.294617 362.844025,415.648987 362.441193,536.456421 
	C362.770508,537.734741 363.099854,539.013123 363.644470,540.990967 
	C366.037811,544.412354 368.431183,547.833679 371.000488,551.920288 
	C380.353699,557.284546 390.776825,556.760376 401.567413,557.424866 
	C401.946167,557.488037 402.324890,557.551208 403.124329,558.120972 
	C405.080750,558.207520 407.037170,558.294006 409.566742,558.435120 
	C409.945374,558.497498 410.324036,558.559937 411.197845,559.146240 
	C418.579712,560.153076 425.949677,561.260742 433.347626,562.130798 
	C438.209961,562.702698 443.112610,562.931519 448.573944,563.367737 
	C448.954712,563.431091 449.335480,563.494446 450.123627,564.077881 
	C452.081390,564.159912 454.039154,564.241882 456.572998,564.377808 
	C456.953400,564.440979 457.333801,564.504150 458.125580,565.083496 
	C460.082550,565.168884 462.039520,565.254272 464.673828,565.405090 
	C465.348022,565.496826 466.022217,565.588562 467.097778,566.171570 
	C468.730499,566.234192 470.363190,566.296875 472.570404,566.409363 
	C472.949524,566.472229 473.328674,566.535034 474.128601,567.105591 
	C476.084106,567.193176 478.039581,567.280823 480.569519,567.417297 
	C480.949097,567.476929 481.328674,567.536499 482.128235,568.104309 
	C484.083588,568.197388 486.038971,568.290466 488.567780,568.435913 
	C488.947144,568.494263 489.326477,568.552673 490.130096,569.115845 
	C492.084686,569.210266 494.039246,569.304688 496.566956,569.447327 
	C496.945740,569.505981 497.324554,569.564636 498.127655,570.127991 
	C500.082855,570.221619 502.038025,570.315247 504.566193,570.458435 
	C504.944794,570.518372 505.323395,570.578308 506.150848,571.148071 
	C507.426758,571.385315 508.741730,571.944092 509.970734,571.794800 
	C512.813293,571.449463 512.119690,570.101624 510.172302,568.113098 
	C508.441650,563.116943 505.998322,558.243958 505.109802,553.102234 
	C502.065216,535.483887 509.869476,521.808838 522.542725,509.899109 
	C523.045898,509.286865 523.549011,508.674652 524.544617,507.628754 
	C526.631836,506.011200 528.719055,504.393616 531.429321,502.796082 
	C531.999084,502.261200 532.568848,501.726318 533.662720,500.892548 
	C534.356262,500.486267 535.049744,500.079987 536.365479,499.741455 
	C536.956299,499.225311 537.547180,498.709167 538.759338,497.888306 
	C541.052124,496.726898 543.344971,495.565521 546.382812,494.553040 
	C553.340820,492.188019 560.298767,489.822968 567.832764,487.325684 
	C568.223022,487.272522 568.613220,487.219330 569.488220,487.509277 
	C570.755554,487.193634 572.022949,486.878021 573.956970,486.394806 
	C574.638977,486.312592 575.320984,486.230377 576.537415,486.496368 
	C578.122131,486.187988 579.706787,485.879578 582.024902,485.425934 
	C583.017761,485.343231 584.010681,485.260529 585.659241,485.562500 
	C588.440735,485.431946 591.222168,485.301422 594.849182,485.173004 
	C596.803162,485.308014 598.757202,485.443024 601.077087,486.091461 
	C602.718811,486.098083 604.360596,486.104736 606.687683,486.173096 
	C607.360413,486.314606 608.033142,486.456116 608.959900,487.083649 
	C609.974060,487.101440 610.988281,487.119232 612.589783,487.203979 
	C612.973450,487.292267 613.357117,487.380554 613.944519,487.986053 
	C614.963928,488.051331 615.983276,488.116577 617.580322,488.277435 
	C617.955872,488.382690 618.331421,488.487976 619.084045,489.146820 
	C623.514099,490.575256 627.944092,492.003723 632.996460,493.723145 
	C634.246094,494.295593 635.495667,494.868042 636.955750,496.026825 
	C637.707642,496.268951 638.459534,496.511078 639.754333,497.010803 
	C640.096008,497.218933 640.437683,497.427063 641.030823,498.217773 
	C647.255005,501.716675 644.641418,495.908783 644.643616,494.338684 
	C644.776428,399.986481 644.768311,305.634064 644.721375,211.281662 
	C644.720337,209.187805 644.119080,207.094238 643.707703,204.439728 
	C643.637573,204.067627 643.567444,203.695511 643.743347,202.761719 
	C643.379395,202.072266 643.015442,201.382797 642.302185,200.075836 
	C639.932190,197.287262 637.562195,194.498688 635.007446,191.097931 
	C634.249939,190.844727 633.492432,190.591507 632.114929,190.150970 
	C631.079407,189.851395 630.043884,189.551819 628.368347,188.750900 
	C626.452698,188.707642 624.537109,188.664368 621.822571,188.555496 
	C620.217041,188.430374 618.611450,188.305267 616.341125,187.720245 
	C614.431580,187.698532 612.522095,187.676804 609.815308,187.587677 
	C608.212463,187.459503 606.609619,187.331329 604.337830,186.742950 
	C602.102173,186.692383 599.866577,186.641800 596.830872,186.521393 
	C595.222229,186.401199 593.613525,186.281006 591.348999,185.688263 
	C589.439026,185.668976 587.529053,185.649689 584.820862,185.559586 
	C583.215820,185.432800 581.610779,185.306015 579.346863,184.707855 
	C577.114502,184.650269 574.882080,184.592667 571.876282,184.481918 
	C570.586304,184.387268 569.296326,184.292618 567.341553,183.731689 
	C565.105591,183.681885 562.869568,183.632080 559.863770,183.515945 
	C558.578247,183.416306 557.292664,183.316681 555.338074,182.755981 
	C553.100159,182.707718 550.862183,182.659454 547.824829,182.546402 
	C546.218323,182.421860 544.611755,182.297302 542.350586,181.695709 
	C540.118408,181.638428 537.886292,181.581146 534.879700,181.474030 
	C533.588440,181.380005 532.297119,181.285980 530.348328,180.716888 
	C528.111694,180.666229 525.875122,180.615585 522.867737,180.503159 
	C521.580811,180.409973 520.293823,180.316803 518.346802,179.748947 
	C516.106812,179.699936 513.866882,179.650925 510.857910,179.540604 
	C509.574432,179.439255 508.290924,179.337921 506.344238,178.764587 
	C503.780060,178.687103 501.215912,178.609634 497.877930,178.477798 
	C496.587158,178.382568 495.296417,178.287338 493.353180,177.708572 
	C491.115417,177.660049 488.877625,177.611526 485.868530,177.502899 
	C484.581146,177.406006 483.293732,177.309113 481.348480,176.734833 
	C479.108795,176.687622 476.869141,176.640411 473.860046,176.531555 
	C472.575714,176.432617 471.291351,176.333679 469.349731,175.753220 
M251.131470,619.376587 
	C238.292953,609.384705 226.257156,614.013062 214.427063,621.594055 
	C205.930450,611.381714 196.207245,611.833374 186.021194,618.083435 
	C176.575562,610.207825 169.246750,612.160217 165.280090,623.421936 
	C156.091461,649.509277 146.928131,675.605469 137.787048,701.709534 
	C137.130081,703.585632 136.484039,705.526245 136.268204,707.484802 
	C135.635773,713.223877 139.232666,717.138306 144.981674,717.224304 
	C150.770126,717.310913 154.454895,714.464600 156.850082,707.695862 
	C163.683441,688.385071 170.440720,669.047424 177.215805,649.716003 
	C179.257874,643.889343 182.397675,638.760864 187.907639,635.786255 
	C189.825058,634.751160 193.250610,634.303345 194.764236,635.352295 
	C196.251816,636.383301 196.730576,639.672302 196.655258,641.937256 
	C196.575272,644.343262 195.404739,646.738953 194.571045,649.089722 
	C188.058945,667.452087 181.455246,685.782166 175.011902,704.168518 
	C172.973724,709.984619 174.437744,714.172791 178.720016,716.206787 
	C183.658081,718.552368 189.778137,716.753296 192.704971,711.945984 
	C193.647827,710.397400 194.294250,708.645325 194.914932,706.927979 
	C196.669006,702.074829 198.311264,697.181396 200.048019,692.321838 
	C205.647858,676.653381 210.919556,660.851990 217.119965,645.424255 
	C218.760223,641.342957 223.011917,638.077698 226.645798,635.162415 
	C227.859329,634.188843 231.531143,634.735291 232.897934,635.933960 
	C234.248444,637.118286 234.574371,640.024292 234.486023,642.138977 
	C234.399399,644.212585 233.236893,646.244751 232.526321,648.288086 
	C227.608276,662.430481 222.271164,676.443848 217.876373,690.746826 
	C213.210999,705.930420 222.375748,717.632690 238.275497,717.000427 
	C243.760803,716.782227 249.173569,714.740295 254.619476,713.531555 
	C254.578674,713.147034 254.537888,712.762512 254.497086,712.377991 
	C256.421051,713.775024 258.344971,715.172058 260.085846,716.436157 
	C254.071793,719.325989 247.752945,721.378479 242.579041,725.046143 
	C230.523056,733.592590 231.949127,750.234802 244.854752,757.208130 
	C258.990753,764.846252 277.001068,758.785339 284.171814,743.717102 
	C286.522736,738.777039 287.999268,733.427246 290.099731,728.357666 
	C290.742401,726.806519 291.835846,724.980896 293.226929,724.276672 
	C301.627533,720.023499 310.174438,716.059448 319.172516,711.759705 
	C328.002625,718.551331 337.579437,716.646973 346.814117,710.611023 
	C354.052399,717.276062 362.199280,717.952454 370.938263,716.007385 
	C372.511444,715.657166 374.222961,715.216675 375.750458,715.489807 
	C384.969360,717.138428 388.603210,715.152161 391.739746,706.421387 
	C393.962280,700.234985 396.176147,694.045349 398.184082,688.442566 
	C402.592102,689.087524 406.110992,689.602417 409.921478,690.159973 
	C409.743805,691.078796 409.587280,692.175354 409.316925,693.243164 
	C405.136658,709.753662 413.341949,718.917786 430.288116,716.619568 
	C431.767853,716.418884 433.206421,715.878723 434.687439,715.733093 
	C436.285889,715.575867 437.967041,715.426025 439.516174,715.742615 
	C447.015900,717.275452 451.634827,714.795288 454.295227,707.533203 
	C456.684998,701.009766 459.016571,694.465027 461.213654,688.373840 
	C465.408081,689.025513 469.078766,689.595764 472.872467,690.185181 
	C472.317474,693.262634 471.429718,696.473694 471.208954,699.730042 
	C470.546631,709.499634 475.702545,715.657104 485.406219,716.766724 
	C492.038177,717.525085 498.309174,716.253418 504.192505,712.947144 
	C505.427063,712.253296 507.593079,711.615906 508.514191,712.212219 
	C517.988831,718.346680 526.857056,716.302124 535.555542,710.553894 
	C542.464539,717.119995 550.620667,718.110168 559.350708,716.045288 
	C570.852051,713.325012 585.172607,696.184143 585.772522,684.658142 
	C585.990723,680.466431 583.432068,677.667175 579.181458,677.553162 
	C574.602295,677.430359 572.075317,679.992493 569.897095,683.837830 
	C566.819458,689.270813 563.411621,694.615295 559.395752,699.364136 
	C558.012817,700.999451 554.385376,700.736572 551.783264,701.340881 
	C551.819580,698.997131 551.281860,696.462463 551.987122,694.341064 
	C556.028809,682.183838 560.392395,670.133972 564.586548,658.026855 
	C565.909302,654.208435 566.270752,650.346924 562.690002,647.497925 
	C558.932983,644.508667 554.579895,644.164551 550.565125,646.678467 
	C548.227844,648.142029 546.550293,647.895203 544.212891,646.986694 
	C530.453491,641.638611 517.945862,647.411011 513.007141,661.319824 
	C509.222412,671.978516 505.811462,682.777771 501.718811,693.314270 
	C500.612030,696.163696 497.835632,698.520203 495.412415,700.627930 
	C494.409363,701.500366 492.320587,701.124573 490.725586,701.316467 
	C490.614258,699.761169 490.271973,698.181091 490.435699,696.655334 
	C490.891052,692.411926 492.195984,688.149658 491.925140,683.975281 
	C491.728851,680.949280 491.756775,679.089478 494.135162,676.760254 
	C499.903625,671.111206 501.241211,664.030273 498.173889,656.530701 
	C495.129059,649.085938 489.149628,645.729126 481.221100,645.653564 
	C479.800323,645.640015 478.379242,645.651672 476.323395,645.651672 
	C478.172882,640.365540 479.791779,635.685974 481.446899,631.019226 
	C484.461304,622.519897 483.130035,617.188660 477.496460,615.308655 
	C471.592255,613.338379 466.911194,616.695251 463.931854,625.119568 
	C456.379852,646.473267 449.066223,667.915527 441.135071,689.127197 
	C439.547211,693.373840 435.844452,696.937134 432.679596,700.418030 
	C431.787170,701.399536 429.342712,700.969971 427.610138,701.187622 
	C427.556702,699.609924 427.318146,698.012329 427.485352,696.458374 
	C427.942780,692.207520 429.207092,687.930176 428.911804,683.750854 
	C428.709167,680.882080 428.658081,679.103821 430.951660,676.978760 
	C436.652771,671.696594 438.235779,663.189880 435.101013,656.278381 
	C431.788452,648.974854 425.875458,645.619568 417.938507,645.660156 
	C416.659882,645.666687 415.381165,645.661133 413.518219,645.661133 
	C414.096405,643.724915 414.500671,642.183716 415.015961,640.680542 
	C416.636566,635.953186 418.532135,631.305603 419.879944,626.503235 
	C421.250214,621.620850 419.173309,617.307068 415.189240,615.582703 
	C410.806580,613.685791 405.695038,615.395630 403.144958,619.842285 
	C402.078491,621.701904 401.394653,623.798767 400.674561,625.836426 
	C393.455780,646.263794 386.485718,666.783508 378.900787,687.073608 
	C377.172974,691.695557 373.712341,695.869263 370.310028,699.569641 
	C368.909241,701.093079 365.555939,700.821350 363.090729,701.366089 
	C363.071625,699.037292 362.441803,696.506470 363.134186,694.412964 
	C367.110626,682.389771 371.402191,670.470703 375.583099,658.515076 
	C376.974915,654.535217 377.602814,650.529114 373.864624,647.503052 
	C370.130646,644.480408 366.010712,644.691101 361.624542,646.475830 
	C359.784607,647.224548 357.231537,647.428467 355.392029,646.778381 
	C341.376556,641.824951 329.218658,647.397766 324.177673,661.423157 
	C320.686768,671.135803 317.396027,680.921448 313.811981,690.598999 
	C311.370361,697.191895 305.796265,700.583252 298.902374,704.629272 
	C299.945099,701.230530 300.497925,699.194214 301.191254,697.206787 
	C305.742767,684.160278 310.444092,671.164490 314.838776,658.065674 
	C316.635956,652.708984 314.502441,648.474670 309.787231,646.608032 
	C305.045624,644.731018 300.221588,646.771851 297.827240,651.783386 
	C297.042114,653.426636 296.500458,655.190857 295.906464,656.920044 
	C292.122955,667.934387 288.565338,679.033447 284.460999,689.926575 
	C283.162720,693.372192 280.862885,696.751587 278.174500,699.250061 
	C276.458923,700.844482 273.188232,700.765625 270.614807,701.437012 
	C270.617401,699.095459 270.526642,696.748352 270.667664,694.415161 
	C270.725647,693.456116 271.284088,692.527649 271.613190,691.584656 
	C275.560852,680.274231 279.674957,669.018066 283.380707,657.628967 
	C285.066895,652.446594 282.816315,648.279785 278.334442,646.652161 
	C273.565155,644.920166 268.976959,646.742249 266.592102,651.399963 
	C265.913300,652.725708 265.410187,654.148560 264.904907,655.554993 
	C260.968872,666.511841 257.073425,677.483398 253.119980,688.433960 
	C251.179657,693.808472 247.926453,698.195557 242.559509,700.448547 
	C241.149902,701.040222 238.776276,700.828430 237.586761,699.964661 
	C236.684433,699.309326 236.628571,696.997437 236.795105,695.488770 
	C236.991730,693.707581 237.784805,691.980103 238.402924,690.259460 
	C243.915298,674.914185 249.465775,659.582520 254.963867,644.232178 
	C258.069946,635.560120 258.199554,627.257629 251.131470,619.376587 
M885.630310,672.021851 
	C883.811279,677.901306 882.518433,684.019226 879.997803,689.580688 
	C878.158569,693.638855 875.014465,697.280579 871.803284,700.450745 
	C870.612549,701.626282 866.983154,701.787476 865.561340,700.812927 
	C864.420288,700.030823 864.222778,696.603638 864.828552,694.749390 
	C868.447449,683.671204 872.458130,672.721680 876.243652,661.696838 
	C876.994263,659.511047 877.542480,657.210205 877.821045,654.918274 
	C878.267212,651.247253 876.906677,647.743713 873.363220,646.918396 
	C870.498108,646.250977 866.549561,646.608887 864.234497,648.194824 
	C861.768738,649.883972 860.180420,653.371826 859.045105,656.389038 
	C855.471313,665.886536 852.269348,675.524597 848.965393,685.122742 
	C847.358215,689.791565 844.684326,693.502808 841.313416,695.283691 
	C838.610840,688.517761 836.090942,681.933533 833.338379,675.447937 
	C832.172974,672.702087 830.515808,670.165100 829.087158,667.530579 
	C827.618347,664.821838 827.261108,662.690002 830.177063,660.204834 
	C833.892822,657.038147 834.028381,652.539246 831.819275,648.306885 
	C829.554688,643.968140 825.647034,642.383728 820.894409,643.121399 
	C815.835938,643.906555 812.654175,647.248047 810.346558,651.516052 
	C806.466309,658.692505 802.751892,665.959717 798.796387,673.093689 
	C797.879578,674.747314 796.501953,676.362366 794.941589,677.403259 
	C789.357666,681.128235 785.928223,686.075623 784.932617,692.773193 
	C784.347107,696.712158 779.353577,701.530090 775.546692,702.182678 
	C772.048096,702.782410 770.394287,701.093384 771.475586,697.700745 
	C772.991089,692.945679 774.767700,688.274048 776.427185,683.564880 
	C779.468750,674.933838 782.653259,666.349426 785.489258,657.651306 
	C787.132385,652.611877 785.023743,648.349487 780.599915,646.526611 
	C776.313110,644.760071 771.596863,646.459290 769.097656,650.835876 
	C768.199097,652.409485 767.581726,654.160339 766.968811,655.877686 
	C763.220276,666.380554 759.980103,677.099304 755.580200,687.319885 
	C753.509705,692.129211 749.461548,696.198242 745.823792,700.156372 
	C744.684387,701.396118 741.958801,701.178101 739.959290,701.627319 
	C739.805786,699.603149 739.035278,697.381470 739.608887,695.590149 
	C741.739258,688.936035 744.355957,682.439148 746.706116,675.853271 
	C748.941162,669.589966 751.327393,663.362854 753.164246,656.980835 
	C754.561951,652.124634 752.526245,648.421753 748.424255,646.768555 
	C743.935547,644.959595 739.158936,646.463562 736.740295,650.673401 
	C735.671448,652.533752 734.942688,654.608276 734.210327,656.639954 
	C730.483093,666.979919 727.188965,677.499268 722.931763,687.614319 
	C721.082458,692.008240 717.615479,695.906799 714.206299,699.362488 
	C712.940674,700.645386 709.738831,700.018066 707.419922,700.261902 
	C707.268860,698.095520 706.447449,695.707153 707.078979,693.799866 
	C710.376282,683.842102 714.047546,674.008423 717.578857,664.127991 
	C720.212524,656.759094 723.102112,649.468079 725.402100,641.996094 
	C730.701538,624.779663 719.475647,611.445251 701.705505,614.314636 
	C695.674683,615.288513 689.994446,618.433594 683.688843,620.757935 
	C674.006165,612.037231 668.801392,611.398315 655.889832,617.940674 
	C646.803833,610.212280 638.408142,612.627502 634.545715,624.545044 
	C626.331970,649.888489 617.024231,674.877197 608.195679,700.022156 
	C607.370300,702.372986 606.482361,704.757690 606.110901,707.200867 
	C605.220642,713.055664 609.049500,717.248901 614.992615,717.246948 
	C620.678833,717.245056 624.360962,714.291809 626.752319,707.529358 
	C633.530090,688.362549 640.125793,669.130188 647.081970,650.028809 
	C648.472229,646.211365 650.773865,642.566528 653.321350,639.373413 
	C656.030762,635.977295 659.874573,632.416565 664.410278,635.169617 
	C668.948914,637.924500 666.599854,642.677795 665.268188,646.520203 
	C660.739075,659.589233 656.022827,672.593384 651.387085,685.625610 
	C649.153198,691.905579 646.836243,698.158630 644.748352,704.487061 
	C643.017273,709.734192 644.286682,713.838196 647.949341,715.947571 
	C652.040527,718.303711 658.004517,717.454468 661.163757,713.591309 
	C662.801025,711.589233 663.945618,709.051941 664.823425,706.582458 
	C671.353516,688.211670 677.595703,669.736572 684.319397,651.437988 
	C686.062073,646.695374 688.774353,642.148804 691.819397,638.096985 
	C694.146729,635.000366 698.032654,632.938477 702.003479,635.228760 
	C706.155090,637.623474 704.667603,641.515808 703.426819,645.045227 
	C698.674500,658.564392 693.843506,672.056580 689.196106,685.611633 
	C688.015564,689.054871 686.981262,692.650208 686.613770,696.250549 
	C685.621765,705.970276 690.945984,713.573914 700.337891,716.176758 
	C707.350098,718.120117 714.247375,717.572266 720.718567,714.140869 
	C723.019897,712.920654 724.586182,713.197571 727.030518,714.261292 
	C731.004822,715.990723 735.728149,717.738586 739.781006,717.127747 
	C745.428406,716.276428 750.749207,713.258606 756.790283,710.945740 
	C767.560486,719.350464 775.963928,719.855652 788.838257,712.530090 
	C789.984802,711.877808 792.038818,712.373962 793.517700,712.832520 
	C798.858887,714.488586 804.085449,717.680359 809.444519,717.878418 
	C821.951355,718.340576 834.406250,716.983521 845.913879,711.094543 
	C847.133118,710.470581 849.590820,710.612793 850.575195,711.452820 
	C856.832275,716.792175 864.089539,718.201477 871.660095,716.246460 
	C876.834045,714.910339 881.606873,712.020691 886.468750,709.865662 
	C890.675537,711.755798 895.144104,714.557983 900.011719,715.814575 
	C922.470154,721.612488 946.391479,707.742004 953.270996,685.399048 
	C954.493896,681.427490 953.582336,678.386353 949.754822,676.714966 
	C945.869324,675.018250 942.141846,675.471008 939.531250,679.140930 
	C938.195557,681.018677 937.434021,683.297119 936.340454,685.355957 
	C930.216064,696.886414 918.836487,703.384583 908.343506,701.371460 
	C901.724731,700.101685 897.589783,695.279358 899.214050,689.444275 
	C901.441589,681.441711 904.310974,673.586975 907.463135,665.897522 
	C908.124756,664.283447 911.207764,663.661987 913.174988,662.583130 
	C913.448853,664.641418 914.373108,666.875183 913.874023,668.724915 
	C912.409424,674.153381 913.312500,677.872314 917.310120,679.890869 
	C921.418579,681.965393 926.565369,680.730103 929.177124,676.589966 
	C933.176575,670.249878 933.782471,663.408691 930.716309,656.528137 
	C927.733704,649.835022 922.264832,646.435059 915.032898,645.848083 
	C904.448059,644.988831 894.416809,650.750732 889.867737,660.514160 
	C888.256775,663.971802 887.174377,667.675781 885.630310,672.021851 
M570.334900,539.789551 
	C575.557190,535.750488 581.154419,532.101379 585.885925,527.551880 
	C589.840454,523.749512 592.017639,518.481995 589.423584,512.962402 
	C586.960388,507.721466 581.743958,506.096527 576.464966,505.925690 
	C560.286255,505.402069 546.416992,510.946472 535.573059,523.091553 
	C531.841187,527.271240 529.153198,532.409241 531.824280,538.187134 
	C534.449524,543.865906 539.915527,545.344849 545.597656,545.531982 
	C554.046387,545.810303 562.140503,544.117065 570.334900,539.789551 
M870.491638,628.956055 
	C873.844360,634.615967 878.476685,636.595642 883.684326,634.594238 
	C888.185669,632.864197 890.649414,628.394836 889.886292,623.343811 
	C889.167480,618.586609 885.152771,615.132568 880.171082,614.985413 
	C873.138245,614.777649 869.205139,620.037720 870.491638,628.956055 
z"/>
<path fill="#FEFEFE" opacity="1.000000" stroke="none" 
	d="
M448.366791,147.648285 
	C449.336853,147.559235 450.306915,147.470184 451.926025,147.547058 
	C454.378845,147.368988 456.182617,147.024994 457.986389,146.681015 
	C459.102570,146.579391 460.218719,146.477768 461.954437,146.544998 
	C464.378143,146.368973 466.182281,146.024109 467.986450,145.679230 
	C469.102661,145.577789 470.218872,145.476349 471.954041,145.544022 
	C474.377502,145.368515 476.182007,145.023880 477.986481,144.679260 
	C479.102844,144.577179 480.219177,144.475113 481.954376,144.539917 
	C484.377625,144.364288 486.182068,144.021774 487.986481,143.679260 
	C489.102600,143.574738 490.218719,143.470215 491.938660,143.534607 
	C494.482849,143.348068 496.423187,142.992599 498.363525,142.637115 
	C499.024597,142.579788 499.685638,142.522461 500.967590,142.628784 
	C503.846710,142.406799 506.104919,142.021194 508.363129,141.635590 
	C509.024292,141.578888 509.685425,141.522186 510.979309,141.632706 
	C513.736938,141.425629 515.861877,141.051300 517.986755,140.676971 
	C518.667419,140.616623 519.348145,140.556259 520.764526,140.640030 
	C523.662231,140.413544 525.824280,140.042938 527.986328,139.672333 
	C528.667053,139.613434 529.347778,139.554550 530.764038,139.639435 
	C533.661926,139.412537 535.824280,139.041840 537.986572,138.671158 
	C538.667175,138.612595 539.347839,138.554031 540.748840,138.638611 
	C543.766846,138.399307 546.064514,138.016876 548.362122,137.634460 
	C549.023315,137.572449 549.684509,137.510437 550.964722,137.617722 
	C553.840698,137.392929 556.097778,136.998856 558.354797,136.604782 
	C559.018433,136.557816 559.682129,136.510849 560.966797,136.626587 
	C563.845764,136.404083 566.103699,136.018906 568.361633,135.633728 
	C569.023254,135.574677 569.684814,135.515625 570.964722,135.623795 
	C573.842529,135.405228 576.102051,135.019455 578.361633,134.633667 
	C579.023315,134.574112 579.684998,134.514542 580.964722,134.620239 
	C583.840820,134.395004 586.098755,134.004486 588.356750,133.613968 
	C589.019775,133.561188 589.682739,133.508408 590.963806,133.623047 
	C593.841675,133.404831 596.101562,133.019226 598.361389,132.633606 
	C599.023193,132.573990 599.685059,132.514374 600.964478,132.619965 
	C603.841492,132.400665 606.100891,132.016174 608.360352,131.631699 
	C609.022339,131.571915 609.684326,131.512131 610.964111,131.618301 
	C613.841797,131.402405 616.101746,131.020569 618.361633,130.638718 
	C619.023376,130.577225 619.685181,130.515732 620.964355,130.619171 
	C623.841370,130.399963 626.100891,130.015823 628.360413,129.631683 
	C629.022583,129.571396 629.684814,129.511108 630.964539,129.614044 
	C633.840759,129.392334 636.099365,129.007401 638.358032,128.622467 
	C639.020874,128.565231 639.683716,128.508011 640.964355,128.613953 
	C643.841492,128.395172 646.100830,128.013199 648.360229,127.631226 
	C649.022339,127.568703 649.684387,127.506180 650.962891,127.609604 
	C653.838928,127.391373 656.098633,127.007202 658.358276,126.623032 
	C659.020874,126.563026 659.683533,126.503021 660.962402,126.609177 
	C663.839050,126.393959 666.099487,126.012596 668.359924,125.631226 
	C669.021973,125.565414 669.683960,125.499611 670.961487,125.600563 
	C673.837830,125.388657 676.098755,125.009987 678.359619,124.631302 
	C678.727783,124.601204 679.095947,124.571114 680.055481,124.705292 
	C683.093689,124.468002 685.540527,124.066429 687.987366,123.664856 
	C688.375488,123.636086 688.763611,123.607315 689.889038,123.720764 
	C695.515991,124.051933 700.405518,124.240875 705.295105,124.429810 
	C705.631104,124.607635 705.967041,124.785461 706.644348,125.383118 
	C707.715210,126.117737 708.444763,126.432541 709.174316,126.747360 
	C710.080139,127.603340 710.985962,128.459320 712.069946,129.908813 
	C712.912170,131.666656 713.576172,132.831009 714.240173,133.995361 
	C714.315186,134.375824 714.390137,134.756317 714.384644,135.883057 
	C714.302063,254.525375 714.298401,372.421448 714.306519,490.317505 
	C714.306763,493.300446 714.435059,496.283356 714.503662,499.266296 
	C713.437744,501.624939 712.371887,503.983612 710.794434,506.681824 
	C709.492737,507.984558 708.702698,508.947815 707.912659,509.911072 
	C707.469666,510.231140 707.026611,510.551208 705.977051,511.008453 
	C700.591187,512.425781 695.876526,514.110168 691.016663,514.887024 
	C684.496765,515.929138 684.437866,515.627869 684.437317,509.053894 
	C684.433044,457.786407 684.431885,406.518890 684.432434,355.251404 
	C684.433105,294.329651 684.467590,233.407837 684.341919,172.486343 
	C684.335999,169.607178 682.918762,166.730911 682.158813,163.853302 
	C681.735168,163.466431 681.311523,163.079544 680.401184,162.243652 
	C675.945435,161.954880 671.976379,162.115112 668.007324,162.275360 
	C666.368042,162.335815 664.728760,162.396271 662.235229,162.324020 
	C657.589478,162.541931 653.797974,162.892563 650.006531,163.243195 
	C648.044067,163.325348 646.081543,163.407516 643.259338,163.348938 
	C638.601990,163.557770 634.804443,163.907318 631.006836,164.256866 
	C629.365845,164.318039 627.724792,164.379227 625.224609,164.306290 
	C620.245972,164.537582 616.126465,164.902985 612.007019,165.268402 
	C610.367065,165.326904 608.727051,165.385391 606.232971,165.314560 
	C601.587891,165.533966 597.796875,165.882690 594.005920,166.231415 
	C591.717529,166.330933 589.429077,166.430450 586.279907,166.383301 
	C581.948303,166.575836 578.477417,166.915009 575.006592,167.254196 
	C573.044373,167.334061 571.082153,167.413925 568.258606,167.353806 
	C563.600220,167.560089 559.803162,167.906342 556.006104,168.252594 
	C554.044739,168.334045 552.083374,168.415466 549.267334,168.359497 
	C544.943542,168.554123 541.474487,168.886154 538.005432,169.218185 
	C536.040283,169.296768 534.075134,169.375351 531.246948,169.320404 
	C526.591125,169.533722 522.798218,169.880600 519.005371,170.227478 
	C517.041931,170.308853 515.078430,170.390244 512.253479,170.335968 
	C507.596619,170.549072 503.801208,170.897842 500.005829,171.246613 
	C498.044037,171.328735 496.082245,171.410858 493.267090,171.354523 
	C488.943939,171.541382 485.474152,171.866699 482.004364,172.192001 
	C479.713989,172.290665 477.423584,172.389343 474.270325,172.351700 
	C469.939850,172.546234 466.472290,172.877075 463.004700,173.207916 
	C461.996094,173.245697 460.987518,173.283493 459.151184,173.195374 
	C454.763947,173.069489 451.204468,173.069489 447.644989,173.069489 
	C447.627747,173.643433 447.610535,174.217361 447.593323,174.791306 
	C451.395020,174.960648 455.196716,175.129974 458.998413,175.299316 
	C459.662323,175.358200 460.326263,175.417084 461.560577,175.757721 
	C464.756317,176.104584 467.381683,176.169662 470.007019,176.234741 
	C471.291351,176.333679 472.575714,176.432617 474.480408,176.812546 
	C477.402649,177.133102 479.704498,177.172653 482.006348,177.212219 
	C483.293732,177.309113 484.581146,177.406006 486.487152,177.785492 
	C489.405731,178.109421 491.705688,178.150757 494.005646,178.192108 
	C495.296417,178.287338 496.587158,178.382568 498.504395,178.762100 
	C501.756378,179.109802 504.381897,179.173203 507.007446,179.236572 
	C508.290924,179.337921 509.574432,179.439255 511.478455,179.821075 
	C514.401611,180.142227 516.704285,180.182938 519.006897,180.223633 
	C520.293823,180.316803 521.580811,180.409973 523.485657,180.786926 
	C526.404358,181.111115 528.705078,181.151550 531.005859,181.191986 
	C532.297119,181.285980 533.588440,181.380005 535.492798,181.757553 
	C538.405640,182.084976 540.705444,182.128860 543.005249,182.172760 
	C544.611755,182.297302 546.218323,182.421860 548.462463,182.826416 
	C551.402466,183.143311 553.704773,183.180191 556.007141,183.217041 
	C557.292664,183.316681 558.578247,183.416306 560.485291,183.797516 
	C563.406677,184.118713 565.706482,184.158325 568.006348,184.197952 
	C569.296326,184.292618 570.586304,184.387268 572.491333,184.764771 
	C575.406189,185.091492 577.705994,185.135361 580.005737,185.179230 
	C581.610779,185.306015 583.215820,185.432800 585.447510,185.836655 
	C588.051086,186.129410 590.028015,186.145111 592.004883,186.160812 
	C593.613525,186.281006 595.222229,186.401199 597.467529,186.804398 
	C600.405090,187.125992 602.705933,187.164566 605.006775,187.203140 
	C606.609619,187.331329 608.212463,187.459503 610.442749,187.861694 
	C613.048767,188.150513 615.027344,188.165344 617.005920,188.180161 
	C618.611450,188.305267 620.217041,188.430374 622.446167,188.830933 
	C625.049316,189.154999 627.028870,189.203613 629.008362,189.252258 
	C630.043884,189.551819 631.079407,189.851395 632.541504,190.528137 
	C633.709473,191.173584 634.450806,191.441849 635.192139,191.710114 
	C637.562195,194.498688 639.932190,197.287262 642.367065,200.670593 
	C642.787048,201.951370 643.142212,202.637390 643.497314,203.323395 
	C643.567444,203.695511 643.637573,204.067627 643.574951,205.083160 
	C643.463257,207.722839 643.502930,209.719070 643.502991,211.715302 
	C643.506348,304.935974 643.506531,398.156647 643.503540,491.377319 
	C643.503479,492.708496 643.791077,494.171478 643.331604,495.329865 
	C642.952637,496.285400 641.664551,496.880402 640.779358,497.635162 
	C640.437683,497.427063 640.096008,497.218933 639.385498,496.583984 
	C638.259521,495.918304 637.502380,495.679382 636.745300,495.440491 
	C635.495667,494.868042 634.246094,494.295593 632.501831,493.295410 
	C627.573792,491.442871 623.140381,490.018066 618.706970,488.593262 
	C618.331421,488.487976 617.955872,488.382690 617.025024,487.993591 
	C615.560059,487.629456 614.650391,487.549133 613.740784,487.468811 
	C613.357117,487.380554 612.973450,487.292267 612.016479,486.947815 
	C610.530762,486.660278 609.618347,486.628937 608.705872,486.597595 
	C608.033142,486.456116 607.360413,486.314606 606.020142,485.925812 
	C603.805420,485.645050 602.258301,485.611572 600.711182,485.578064 
	C598.757202,485.443024 596.803162,485.308014 594.097900,484.979858 
	C590.565552,484.917084 587.784546,485.047455 585.003540,485.177826 
	C584.010681,485.260529 583.017761,485.343231 581.295776,485.324646 
	C579.045471,485.531677 577.524231,485.839935 576.002991,486.148193 
	C575.320984,486.230377 574.638977,486.312592 573.277832,486.315857 
	C571.400269,486.546661 570.201843,486.856415 569.003479,487.166199 
	C568.613220,487.219330 568.223022,487.272522 567.159424,487.253143 
	C559.536621,489.588440 552.587158,491.996277 545.637756,494.404114 
	C543.344971,495.565521 541.052124,496.726898 538.140076,497.995544 
	C536.928284,498.626434 536.335815,499.150085 535.743286,499.673706 
	C535.049744,500.079987 534.356262,500.486267 533.088745,501.015808 
	C531.945312,501.684692 531.375793,502.230347 530.806274,502.776031 
	C528.719055,504.393616 526.631836,506.011200 523.987671,507.860596 
	C522.924988,508.699158 522.419250,509.305847 521.913513,509.912567 
	C509.869476,521.808838 502.065216,535.483887 505.109802,553.102234 
	C505.998322,558.243958 508.441650,563.116943 510.181946,568.858398 
	C508.695068,569.948608 507.198547,570.293457 505.701996,570.638245 
	C505.323395,570.578308 504.944794,570.518372 503.985840,570.159424 
	C501.504791,569.781372 499.604095,569.702271 497.703369,569.623230 
	C497.324554,569.564636 496.945740,569.505981 495.986938,569.148621 
	C493.506531,568.770264 491.606201,568.690674 489.705841,568.611084 
	C489.326477,568.552673 488.947144,568.494263 487.988403,568.134644 
	C485.508759,567.754272 483.608521,567.675171 481.708252,567.596069 
	C481.328674,567.536499 480.949097,567.476929 479.989990,567.117310 
	C477.509583,566.744141 475.608704,566.671021 473.707794,566.597900 
	C473.328674,566.535034 472.949524,566.472229 471.995880,566.113159 
	C469.846375,565.771423 468.271393,565.725830 466.696411,565.680237 
	C466.022217,565.588562 465.348022,565.496826 464.041565,565.098877 
	C461.510925,564.717651 459.612549,564.642517 457.714203,564.567383 
	C457.333801,564.504150 456.953400,564.440979 455.991455,564.077515 
	C453.512054,563.704163 451.614136,563.630981 449.716248,563.557861 
	C449.335480,563.494446 448.954712,563.431091 447.998871,563.068726 
	C444.654419,562.363220 441.894775,561.866211 439.113892,561.566711 
	C429.647522,560.547729 420.173676,559.598328 410.702667,558.622375 
	C410.324036,558.559937 409.945374,558.497498 408.990387,558.128723 
	C406.510559,557.752991 404.607086,557.683716 402.703613,557.614380 
	C402.324890,557.551208 401.946167,557.488037 400.993164,557.120117 
	C390.554138,554.961975 380.689362,553.108521 370.824554,551.255066 
	C368.431183,547.833679 366.037811,544.412354 363.662720,540.284668 
	C363.402130,538.386658 363.123260,537.195007 362.844391,536.003357 
	C362.844025,415.648987 362.843628,295.294617 363.026154,174.143997 
	C364.087524,169.859436 364.966003,166.371124 365.844452,162.882843 
	C368.589020,160.844635 371.333557,158.806427 374.731903,156.706146 
	C377.036255,155.945328 378.686829,155.246567 380.337372,154.547806 
	C380.707916,154.501984 381.078491,154.456161 382.020630,154.566971 
	C384.839783,154.327118 387.087311,153.930649 389.334869,153.534180 
	C390.002289,153.482315 390.669678,153.430450 391.960632,153.545792 
	C394.835449,153.323318 397.086731,152.933624 399.338043,152.543930 
	C400.004700,152.489029 400.671326,152.434143 401.960693,152.545837 
	C404.834930,152.322937 407.086456,151.933426 409.338013,151.543915 
	C410.004639,151.488907 410.671295,151.433899 411.960449,151.545624 
	C414.834412,151.322678 417.085846,150.932968 419.337311,150.543274 
	C420.004181,150.488068 420.671082,150.432861 421.960205,150.544678 
	C424.833252,150.319168 427.083984,149.926651 429.334747,149.534134 
	C430.002289,149.481033 430.669861,149.427933 431.942383,149.543015 
	C434.487183,149.356903 436.427002,149.002594 438.366821,148.648300 
	C439.336731,148.559723 440.306641,148.471146 441.911530,148.549438 
	C444.486603,148.360306 446.426697,148.004303 448.366791,147.648285 
z"/>
<path fill="#F9F9F9" opacity="1.000000" stroke="none" 
	d="
M251.383850,619.632935 
	C258.199554,627.257629 258.069946,635.560120 254.963867,644.232178 
	C249.465775,659.582520 243.915298,674.914185 238.402924,690.259460 
	C237.784805,691.980103 236.991730,693.707581 236.795105,695.488770 
	C236.628571,696.997437 236.684433,699.309326 237.586761,699.964661 
	C238.776276,700.828430 241.149902,701.040222 242.559509,700.448547 
	C247.926453,698.195557 251.179657,693.808472 253.119980,688.433960 
	C257.073425,677.483398 260.968872,666.511841 264.904907,655.554993 
	C265.410187,654.148560 265.913300,652.725708 266.592102,651.399963 
	C268.976959,646.742249 273.565155,644.920166 278.334442,646.652161 
	C282.816315,648.279785 285.066895,652.446594 283.380707,657.628967 
	C279.674957,669.018066 275.560852,680.274231 271.613190,691.584656 
	C271.284088,692.527649 270.725647,693.456116 270.667664,694.415161 
	C270.526642,696.748352 270.617401,699.095459 270.614807,701.437012 
	C273.188232,700.765625 276.458923,700.844482 278.174500,699.250061 
	C280.862885,696.751587 283.162720,693.372192 284.460999,689.926575 
	C288.565338,679.033447 292.122955,667.934387 295.906464,656.920044 
	C296.500458,655.190857 297.042114,653.426636 297.827240,651.783386 
	C300.221588,646.771851 305.045624,644.731018 309.787231,646.608032 
	C314.502441,648.474670 316.635956,652.708984 314.838776,658.065674 
	C310.444092,671.164490 305.742767,684.160278 301.191254,697.206787 
	C300.497925,699.194214 299.945099,701.230530 298.902374,704.629272 
	C305.796265,700.583252 311.370361,697.191895 313.811981,690.598999 
	C317.396027,680.921448 320.686768,671.135803 324.177673,661.423157 
	C329.218658,647.397766 341.376556,641.824951 355.392029,646.778381 
	C357.231537,647.428467 359.784607,647.224548 361.624542,646.475830 
	C366.010712,644.691101 370.130646,644.480408 373.864624,647.503052 
	C377.602814,650.529114 376.974915,654.535217 375.583099,658.515076 
	C371.402191,670.470703 367.110626,682.389771 363.134186,694.412964 
	C362.441803,696.506470 363.071625,699.037292 363.090729,701.366089 
	C365.555939,700.821350 368.909241,701.093079 370.310028,699.569641 
	C373.712341,695.869263 377.172974,691.695557 378.900787,687.073608 
	C386.485718,666.783508 393.455780,646.263794 400.674561,625.836426 
	C401.394653,623.798767 402.078491,621.701904 403.144958,619.842285 
	C405.695038,615.395630 410.806580,613.685791 415.189240,615.582703 
	C419.173309,617.307068 421.250214,621.620850 419.879944,626.503235 
	C418.532135,631.305603 416.636566,635.953186 415.015961,640.680542 
	C414.500671,642.183716 414.096405,643.724915 413.518219,645.661133 
	C415.381165,645.661133 416.659882,645.666687 417.938507,645.660156 
	C425.875458,645.619568 431.788452,648.974854 435.101013,656.278381 
	C438.235779,663.189880 436.652771,671.696594 430.951660,676.978760 
	C428.658081,679.103821 428.709167,680.882080 428.911804,683.750854 
	C429.207092,687.930176 427.942780,692.207520 427.485352,696.458374 
	C427.318146,698.012329 427.556702,699.609924 427.610138,701.187622 
	C429.342712,700.969971 431.787170,701.399536 432.679596,700.418030 
	C435.844452,696.937134 439.547211,693.373840 441.135071,689.127197 
	C449.066223,667.915527 456.379852,646.473267 463.931854,625.119568 
	C466.911194,616.695251 471.592255,613.338379 477.496460,615.308655 
	C483.130035,617.188660 484.461304,622.519897 481.446899,631.019226 
	C479.791779,635.685974 478.172882,640.365540 476.323395,645.651672 
	C478.379242,645.651672 479.800323,645.640015 481.221100,645.653564 
	C489.149628,645.729126 495.129059,649.085938 498.173889,656.530701 
	C501.241211,664.030273 499.903625,671.111206 494.135162,676.760254 
	C491.756775,679.089478 491.728851,680.949280 491.925140,683.975281 
	C492.195984,688.149658 490.891052,692.411926 490.435699,696.655334 
	C490.271973,698.181091 490.614258,699.761169 490.725586,701.316467 
	C492.320587,701.124573 494.409363,701.500366 495.412415,700.627930 
	C497.835632,698.520203 500.612030,696.163696 501.718811,693.314270 
	C505.811462,682.777771 509.222412,671.978516 513.007141,661.319824 
	C517.945862,647.411011 530.453491,641.638611 544.212891,646.986694 
	C546.550293,647.895203 548.227844,648.142029 550.565125,646.678467 
	C554.579895,644.164551 558.932983,644.508667 562.690002,647.497925 
	C566.270752,650.346924 565.909302,654.208435 564.586548,658.026855 
	C560.392395,670.133972 556.028809,682.183838 551.987122,694.341064 
	C551.281860,696.462463 551.819580,698.997131 551.783264,701.340881 
	C554.385376,700.736572 558.012817,700.999451 559.395752,699.364136 
	C563.411621,694.615295 566.819458,689.270813 569.897095,683.837830 
	C572.075317,679.992493 574.602295,677.430359 579.181458,677.553162 
	C583.432068,677.667175 585.990723,680.466431 585.772522,684.658142 
	C585.172607,696.184143 570.852051,713.325012 559.350708,716.045288 
	C550.620667,718.110168 542.464539,717.119995 535.555542,710.553894 
	C526.857056,716.302124 517.988831,718.346680 508.514191,712.212219 
	C507.593079,711.615906 505.427063,712.253296 504.192505,712.947144 
	C498.309174,716.253418 492.038177,717.525085 485.406219,716.766724 
	C475.702545,715.657104 470.546631,709.499634 471.208954,699.730042 
	C471.429718,696.473694 472.317474,693.262634 472.872467,690.185181 
	C469.078766,689.595764 465.408081,689.025513 461.213654,688.373840 
	C459.016571,694.465027 456.684998,701.009766 454.295227,707.533203 
	C451.634827,714.795288 447.015900,717.275452 439.516174,715.742615 
	C437.967041,715.426025 436.285889,715.575867 434.687439,715.733093 
	C433.206421,715.878723 431.767853,716.418884 430.288116,716.619568 
	C413.341949,718.917786 405.136658,709.753662 409.316925,693.243164 
	C409.587280,692.175354 409.743805,691.078796 409.921478,690.159973 
	C406.110992,689.602417 402.592102,689.087524 398.184082,688.442566 
	C396.176147,694.045349 393.962280,700.234985 391.739746,706.421387 
	C388.603210,715.152161 384.969360,717.138428 375.750458,715.489807 
	C374.222961,715.216675 372.511444,715.657166 370.938263,716.007385 
	C362.199280,717.952454 354.052399,717.276062 346.814117,710.611023 
	C337.579437,716.646973 328.002625,718.551331 319.172516,711.759705 
	C310.174438,716.059448 301.627533,720.023499 293.226929,724.276672 
	C291.835846,724.980896 290.742401,726.806519 290.099731,728.357666 
	C287.999268,733.427246 286.522736,738.777039 284.171814,743.717102 
	C277.001068,758.785339 258.990753,764.846252 244.854752,757.208130 
	C231.949127,750.234802 230.523056,733.592590 242.579041,725.046143 
	C247.752945,721.378479 254.071793,719.325989 260.085846,716.436157 
	C258.344971,715.172058 256.421051,713.775024 254.497086,712.377991 
	C254.537888,712.762512 254.578674,713.147034 254.619476,713.531555 
	C249.173569,714.740295 243.760803,716.782227 238.275497,717.000427 
	C222.375748,717.632690 213.210999,705.930420 217.876373,690.746826 
	C222.271164,676.443848 227.608276,662.430481 232.526321,648.288086 
	C233.236893,646.244751 234.399399,644.212585 234.486023,642.138977 
	C234.574371,640.024292 234.248444,637.118286 232.897934,635.933960 
	C231.531143,634.735291 227.859329,634.188843 226.645798,635.162415 
	C223.011917,638.077698 218.760223,641.342957 217.119965,645.424255 
	C210.919556,660.851990 205.647858,676.653381 200.048019,692.321838 
	C198.311264,697.181396 196.669006,702.074829 194.914932,706.927979 
	C194.294250,708.645325 193.647827,710.397400 192.704971,711.945984 
	C189.778137,716.753296 183.658081,718.552368 178.720016,716.206787 
	C174.437744,714.172791 172.973724,709.984619 175.011902,704.168518 
	C181.455246,685.782166 188.058945,667.452087 194.571045,649.089722 
	C195.404739,646.738953 196.575272,644.343262 196.655258,641.937256 
	C196.730576,639.672302 196.251816,636.383301 194.764236,635.352295 
	C193.250610,634.303345 189.825058,634.751160 187.907639,635.786255 
	C182.397675,638.760864 179.257874,643.889343 177.215805,649.716003 
	C170.440720,669.047424 163.683441,688.385071 156.850082,707.695862 
	C154.454895,714.464600 150.770126,717.310913 144.981674,717.224304 
	C139.232666,717.138306 135.635773,713.223877 136.268204,707.484802 
	C136.484039,705.526245 137.130081,703.585632 137.787048,701.709534 
	C146.928131,675.605469 156.091461,649.509277 165.280090,623.421936 
	C169.246750,612.160217 176.575562,610.207825 186.021194,618.083435 
	C196.207245,611.833374 205.930450,611.381714 214.427063,621.594055 
	C226.257156,614.013062 238.292953,609.384705 251.383850,619.632935 
M333.905884,689.406006 
	C333.201752,692.292847 331.728333,696.076721 335.349915,697.170105 
	C337.351562,697.774353 341.747437,695.771851 342.626343,693.837097 
	C346.165619,686.046143 349.014771,677.901428 351.470398,669.693359 
	C351.947601,668.098328 349.941132,664.507629 348.316193,663.907959 
	C346.852936,663.368042 344.059784,665.347473 342.384766,666.820312 
	C341.121155,667.931396 340.533325,669.939148 339.929108,671.648438 
	C337.935364,677.288635 336.070740,682.974548 333.905884,689.406006 
M533.640625,664.078796 
	C532.028625,666.543701 529.955627,668.826965 528.898438,671.510437 
	C526.526123,677.531921 524.338867,683.671326 522.754395,689.934265 
	C522.179993,692.204651 523.538452,694.963989 524.014954,697.500244 
	C526.451111,696.451904 530.302185,696.024231 531.080933,694.248840 
	C534.645142,686.124146 537.765686,677.738403 540.150818,669.196533 
	C541.075073,665.886475 539.113647,662.488586 533.640625,664.078796 
M419.437531,665.255676 
	C419.234192,660.447876 416.041901,659.889893 412.540955,661.008545 
	C407.568268,662.597412 405.144104,666.477417 404.346252,671.724854 
	C410.356293,671.699402 416.588745,673.354065 419.437531,665.255676 
M471.644226,671.705078 
	C474.302734,671.108521 477.624298,671.269409 479.425140,669.693054 
	C481.081482,668.243103 481.101410,664.923706 481.842224,662.427856 
	C479.252869,662.128723 475.862793,660.665527 474.244659,661.778503 
	C471.100006,663.941406 468.949921,667.550354 466.387817,670.560181 
	C466.757446,670.944397 467.127075,671.328552 467.496704,671.712769 
	C468.597565,671.712769 469.698456,671.712769 471.644226,671.705078 
M267.647797,731.722412 
	C263.916840,733.021729 259.947784,733.886536 256.530609,735.758667 
	C253.819366,737.244141 251.997818,740.713684 254.608780,743.201599 
	C255.849640,744.383911 260.562042,743.968994 261.904541,742.562378 
	C264.505188,739.837524 265.833954,735.898865 267.647797,731.722412 
z"/>
<path fill="#F9F9F9" opacity="1.000000" stroke="none" 
	d="
M885.740479,671.644592 
	C887.174377,667.675781 888.256775,663.971802 889.867737,660.514160 
	C894.416809,650.750732 904.448059,644.988831 915.032898,645.848083 
	C922.264832,646.435059 927.733704,649.835022 930.716309,656.528137 
	C933.782471,663.408691 933.176575,670.249878 929.177124,676.589966 
	C926.565369,680.730103 921.418579,681.965393 917.310120,679.890869 
	C913.312500,677.872314 912.409424,674.153381 913.874023,668.724915 
	C914.373108,666.875183 913.448853,664.641418 913.174988,662.583130 
	C911.207764,663.661987 908.124756,664.283447 907.463135,665.897522 
	C904.310974,673.586975 901.441589,681.441711 899.214050,689.444275 
	C897.589783,695.279358 901.724731,700.101685 908.343506,701.371460 
	C918.836487,703.384583 930.216064,696.886414 936.340454,685.355957 
	C937.434021,683.297119 938.195557,681.018677 939.531250,679.140930 
	C942.141846,675.471008 945.869324,675.018250 949.754822,676.714966 
	C953.582336,678.386353 954.493896,681.427490 953.270996,685.399048 
	C946.391479,707.742004 922.470154,721.612488 900.011719,715.814575 
	C895.144104,714.557983 890.675537,711.755798 886.468750,709.865662 
	C881.606873,712.020691 876.834045,714.910339 871.660095,716.246460 
	C864.089539,718.201477 856.832275,716.792175 850.575195,711.452820 
	C849.590820,710.612793 847.133118,710.470581 845.913879,711.094543 
	C834.406250,716.983521 821.951355,718.340576 809.444519,717.878418 
	C804.085449,717.680359 798.858887,714.488586 793.517700,712.832520 
	C792.038818,712.373962 789.984802,711.877808 788.838257,712.530090 
	C775.963928,719.855652 767.560486,719.350464 756.790283,710.945740 
	C750.749207,713.258606 745.428406,716.276428 739.781006,717.127747 
	C735.728149,717.738586 731.004822,715.990723 727.030518,714.261292 
	C724.586182,713.197571 723.019897,712.920654 720.718567,714.140869 
	C714.247375,717.572266 707.350098,718.120117 700.337891,716.176758 
	C690.945984,713.573914 685.621765,705.970276 686.613770,696.250549 
	C686.981262,692.650208 688.015564,689.054871 689.196106,685.611633 
	C693.843506,672.056580 698.674500,658.564392 703.426819,645.045227 
	C704.667603,641.515808 706.155090,637.623474 702.003479,635.228760 
	C698.032654,632.938477 694.146729,635.000366 691.819397,638.096985 
	C688.774353,642.148804 686.062073,646.695374 684.319397,651.437988 
	C677.595703,669.736572 671.353516,688.211670 664.823425,706.582458 
	C663.945618,709.051941 662.801025,711.589233 661.163757,713.591309 
	C658.004517,717.454468 652.040527,718.303711 647.949341,715.947571 
	C644.286682,713.838196 643.017273,709.734192 644.748352,704.487061 
	C646.836243,698.158630 649.153198,691.905579 651.387085,685.625610 
	C656.022827,672.593384 660.739075,659.589233 665.268188,646.520203 
	C666.599854,642.677795 668.948914,637.924500 664.410278,635.169617 
	C659.874573,632.416565 656.030762,635.977295 653.321350,639.373413 
	C650.773865,642.566528 648.472229,646.211365 647.081970,650.028809 
	C640.125793,669.130188 633.530090,688.362549 626.752319,707.529358 
	C624.360962,714.291809 620.678833,717.245056 614.992615,717.246948 
	C609.049500,717.248901 605.220642,713.055664 606.110901,707.200867 
	C606.482361,704.757690 607.370300,702.372986 608.195679,700.022156 
	C617.024231,674.877197 626.331970,649.888489 634.545715,624.545044 
	C638.408142,612.627502 646.803833,610.212280 655.889832,617.940674 
	C668.801392,611.398315 674.006165,612.037231 683.688843,620.757935 
	C689.994446,618.433594 695.674683,615.288513 701.705505,614.314636 
	C719.475647,611.445251 730.701538,624.779663 725.402100,641.996094 
	C723.102112,649.468079 720.212524,656.759094 717.578857,664.127991 
	C714.047546,674.008423 710.376282,683.842102 707.078979,693.799866 
	C706.447449,695.707153 707.268860,698.095520 707.419922,700.261902 
	C709.738831,700.018066 712.940674,700.645386 714.206299,699.362488 
	C717.615479,695.906799 721.082458,692.008240 722.931763,687.614319 
	C727.188965,677.499268 730.483093,666.979919 734.210327,656.639954 
	C734.942688,654.608276 735.671448,652.533752 736.740295,650.673401 
	C739.158936,646.463562 743.935547,644.959595 748.424255,646.768555 
	C752.526245,648.421753 754.561951,652.124634 753.164246,656.980835 
	C751.327393,663.362854 748.941162,669.589966 746.706116,675.853271 
	C744.355957,682.439148 741.739258,688.936035 739.608887,695.590149 
	C739.035278,697.381470 739.805786,699.603149 739.959290,701.627319 
	C741.958801,701.178101 744.684387,701.396118 745.823792,700.156372 
	C749.461548,696.198242 753.509705,692.129211 755.580200,687.319885 
	C759.980103,677.099304 763.220276,666.380554 766.968811,655.877686 
	C767.581726,654.160339 768.199097,652.409485 769.097656,650.835876 
	C771.596863,646.459290 776.313110,644.760071 780.599915,646.526611 
	C785.023743,648.349487 787.132385,652.611877 785.489258,657.651306 
	C782.653259,666.349426 779.468750,674.933838 776.427185,683.564880 
	C774.767700,688.274048 772.991089,692.945679 771.475586,697.700745 
	C770.394287,701.093384 772.048096,702.782410 775.546692,702.182678 
	C779.353577,701.530090 784.347107,696.712158 784.932617,692.773193 
	C785.928223,686.075623 789.357666,681.128235 794.941589,677.403259 
	C796.501953,676.362366 797.879578,674.747314 798.796387,673.093689 
	C802.751892,665.959717 806.466309,658.692505 810.346558,651.516052 
	C812.654175,647.248047 815.835938,643.906555 820.894409,643.121399 
	C825.647034,642.383728 829.554688,643.968140 831.819275,648.306885 
	C834.028381,652.539246 833.892822,657.038147 830.177063,660.204834 
	C827.261108,662.690002 827.618347,664.821838 829.087158,667.530579 
	C830.515808,670.165100 832.172974,672.702087 833.338379,675.447937 
	C836.090942,681.933533 838.610840,688.517761 841.313416,695.283691 
	C844.684326,693.502808 847.358215,689.791565 848.965393,685.122742 
	C852.269348,675.524597 855.471313,665.886536 859.045105,656.389038 
	C860.180420,653.371826 861.768738,649.883972 864.234497,648.194824 
	C866.549561,646.608887 870.498108,646.250977 873.363220,646.918396 
	C876.906677,647.743713 878.267212,651.247253 877.821045,654.918274 
	C877.542480,657.210205 876.994263,659.511047 876.243652,661.696838 
	C872.458130,672.721680 868.447449,683.671204 864.828552,694.749390 
	C864.222778,696.603638 864.420288,700.030823 865.561340,700.812927 
	C866.983154,701.787476 870.612549,701.626282 871.803284,700.450745 
	C875.014465,697.280579 878.158569,693.638855 879.997803,689.580688 
	C882.518433,684.019226 883.811279,677.901306 885.740479,671.644592 
M818.153748,684.046204 
	C817.558411,683.266724 816.963135,682.487183 816.886597,682.386902 
	C816.062988,686.173401 816.148621,690.693787 814.097107,693.804688 
	C812.115601,696.809326 807.930664,698.360962 804.522400,700.681091 
	C807.041138,703.031494 810.401428,703.760132 814.119812,702.587402 
	C817.813782,701.422363 820.099487,698.682861 820.069397,694.878906 
	C820.042725,691.512268 819.078796,688.153015 818.153748,684.046204 
M814.161621,679.568237 
	C814.644043,680.077026 815.126526,680.585815 815.609009,681.094604 
	C815.975464,680.692444 816.341980,680.290283 816.708496,679.888123 
	C815.995728,679.576416 815.282898,679.264648 814.161621,679.568237 
z"/>
<path fill="#FAFAFA" opacity="1.000000" stroke="none" 
	d="
M570.002747,539.952759 
	C562.140503,544.117065 554.046387,545.810303 545.597656,545.531982 
	C539.915527,545.344849 534.449524,543.865906 531.824280,538.187134 
	C529.153198,532.409241 531.841187,527.271240 535.573059,523.091553 
	C546.416992,510.946472 560.286255,505.402069 576.464966,505.925690 
	C581.743958,506.096527 586.960388,507.721466 589.423584,512.962402 
	C592.017639,518.481995 589.840454,523.749512 585.885925,527.551880 
	C581.154419,532.101379 575.557190,535.750488 570.002747,539.952759 
z"/>
<path fill="#828282" opacity="1.000000" stroke="none" 
	d="
M682.198853,164.277908 
	C682.918762,166.730911 684.335999,169.607178 684.341919,172.486343 
	C684.467590,233.407837 684.433105,294.329651 684.432434,355.251404 
	C684.431885,406.518890 684.433044,457.786407 684.437317,509.053894 
	C684.437866,515.627869 684.496765,515.929138 691.016663,514.887024 
	C695.876526,514.110168 700.591187,512.425781 705.748718,511.158905 
	C700.235962,516.690796 692.724670,516.121887 685.517212,516.473572 
	C684.789307,516.509033 683.588440,514.925415 683.298889,513.898132 
	C682.906677,512.506531 683.174133,510.926361 683.174194,509.427094 
	C683.178162,397.471802 683.190979,285.516510 683.149292,173.561234 
	C683.148193,170.608215 682.555603,167.655426 682.198853,164.277908 
z"/>
<path fill="#828282" opacity="1.000000" stroke="none" 
	d="
M714.793823,499.028137 
	C714.435059,496.283356 714.306763,493.300446 714.306519,490.317505 
	C714.298401,372.421448 714.302063,254.525375 714.459290,136.164185 
	C714.935364,137.435211 715.536682,139.171265 715.537354,140.907547 
	C715.581055,258.555969 715.578491,376.204407 715.555542,493.852844 
	C715.555237,495.498596 715.247925,497.144287 714.793823,499.028137 
z"/>
<path fill="#828282" opacity="1.000000" stroke="none" 
	d="
M640.905090,497.926453 
	C641.664551,496.880402 642.952637,496.285400 643.331604,495.329865 
	C643.791077,494.171478 643.503479,492.708496 643.503540,491.377319 
	C643.506531,398.156647 643.506348,304.935974 643.502991,211.715302 
	C643.502930,209.719070 643.463257,207.722839 643.619995,205.363571 
	C644.119080,207.094238 644.720337,209.187805 644.721375,211.281662 
	C644.768311,305.634064 644.776428,399.986481 644.643616,494.338684 
	C644.641418,495.908783 647.255005,501.716675 640.905090,497.926453 
z"/>
<path fill="#F3F3F3" opacity="1.000000" stroke="none" 
	d="
M870.363525,628.614624 
	C869.205139,620.037720 873.138245,614.777649 880.171082,614.985413 
	C885.152771,615.132568 889.167480,618.586609 889.886292,623.343811 
	C890.649414,628.394836 888.185669,632.864197 883.684326,634.594238 
	C878.476685,636.595642 873.844360,634.615967 870.363525,628.614624 
z"/>
<path fill="#828282" opacity="1.000000" stroke="none" 
	d="
M410.950256,558.884277 
	C420.173676,559.598328 429.647522,560.547729 439.113892,561.566711 
	C441.894775,561.866211 444.654419,562.363220 447.710510,563.041809 
	C443.112610,562.931519 438.209961,562.702698 433.347626,562.130798 
	C425.949677,561.260742 418.579712,560.153076 410.950256,558.884277 
z"/>
<path fill="#828282" opacity="1.000000" stroke="none" 
	d="
M370.912537,551.587646 
	C380.689362,553.108521 390.554138,554.961975 400.706421,557.092834 
	C390.776825,556.760376 380.353699,557.284546 370.912537,551.587646 
z"/>
<path fill="#828282" opacity="1.000000" stroke="none" 
	d="
M546.010254,494.478577 
	C552.587158,491.996277 559.536621,489.588440 566.871338,487.319275 
	C560.298767,489.822968 553.340820,492.188019 546.010254,494.478577 
z"/>
<path fill="#828282" opacity="1.000000" stroke="none" 
	d="
M458.942261,174.974823 
	C455.196716,175.129974 451.395020,174.960648 447.593323,174.791306 
	C447.610535,174.217361 447.627747,173.643433 447.644989,173.069489 
	C451.204468,173.069489 454.763947,173.069489 458.773743,173.223633 
	C459.111420,173.801971 458.998779,174.226151 458.942261,174.974823 
z"/>
<path fill="#828282" opacity="1.000000" stroke="none" 
	d="
M705.121460,124.116760 
	C700.405518,124.240875 695.515991,124.051933 690.177673,123.676483 
	C694.801880,123.594551 699.874878,123.699127 705.121460,124.116760 
z"/>
<path fill="#828282" opacity="1.000000" stroke="none" 
	d="
M612.335693,165.502838 
	C616.126465,164.902985 620.245972,164.537582 624.816589,164.340057 
	C621.066650,164.917709 616.865540,165.327484 612.335693,165.502838 
z"/>
<path fill="#828282" opacity="1.000000" stroke="none" 
	d="
M556.332764,168.485504 
	C559.803162,167.906342 563.600220,167.560089 567.841980,167.391861 
	C564.410950,167.952728 560.535217,168.335571 556.332764,168.485504 
z"/>
<path fill="#828282" opacity="1.000000" stroke="none" 
	d="
M650.329529,163.481430 
	C653.797974,162.892563 657.589478,162.541931 661.827942,162.360428 
	C658.400818,162.926239 654.526672,163.322952 650.329529,163.481430 
z"/>
<path fill="#828282" opacity="1.000000" stroke="none" 
	d="
M668.341003,162.512085 
	C671.976379,162.115112 675.945435,161.954880 680.151001,162.097885 
	C676.483215,162.517029 672.578918,162.632919 668.341003,162.512085 
z"/>
<path fill="#828282" opacity="1.000000" stroke="none" 
	d="
M631.331787,164.492203 
	C634.804443,163.907318 638.601990,163.557770 642.842957,163.390472 
	C639.409790,163.957672 635.533203,164.342606 631.331787,164.492203 
z"/>
<path fill="#828282" opacity="1.000000" stroke="none" 
	d="
M594.330933,166.466064 
	C597.796875,165.882690 601.587891,165.533966 605.825806,165.354034 
	C602.400513,165.915466 598.528259,166.308090 594.330933,166.466064 
z"/>
<path fill="#828282" opacity="1.000000" stroke="none" 
	d="
M519.332031,170.459793 
	C522.798218,169.880600 526.591125,169.533722 530.829712,169.359497 
	C527.403137,169.918777 523.530945,170.305450 519.332031,170.459793 
z"/>
<path fill="#828282" opacity="1.000000" stroke="none" 
	d="
M500.334229,171.475891 
	C503.801208,170.897842 507.596619,170.549072 511.836853,170.376892 
	C508.408691,170.937393 504.535645,171.321289 500.334229,171.475891 
z"/>
<path fill="#828282" opacity="1.000000" stroke="none" 
	d="
M618.895508,488.870056 
	C623.140381,490.018066 627.573792,491.442871 632.190674,493.149933 
	C627.944092,492.003723 623.514099,490.575256 618.895508,488.870056 
z"/>
<path fill="#828282" opacity="1.000000" stroke="none" 
	d="
M538.325989,169.449615 
	C541.474487,168.886154 544.943542,168.554123 548.851440,168.402557 
	C545.742371,168.949020 542.194458,169.315033 538.325989,169.449615 
z"/>
<path fill="#828282" opacity="1.000000" stroke="none" 
	d="
M575.327515,167.485703 
	C578.477417,166.915009 581.948303,166.575836 585.856689,166.421494 
	C582.745605,166.976624 579.197021,167.346924 575.327515,167.485703 
z"/>
<path fill="#828282" opacity="1.000000" stroke="none" 
	d="
M482.329895,172.414459 
	C485.474152,171.866699 488.943939,171.541382 492.851227,171.399246 
	C489.744293,171.933929 486.199890,172.285416 482.329895,172.414459 
z"/>
<path fill="#828282" opacity="1.000000" stroke="none" 
	d="
M463.330200,173.430969 
	C466.472290,172.877075 469.939850,172.546234 473.846741,172.393097 
	C470.742584,172.931885 467.199127,173.292938 463.330200,173.430969 
z"/>
<path fill="#828282" opacity="1.000000" stroke="none" 
	d="
M365.508179,162.973053 
	C364.966003,166.371124 364.087524,169.859436 363.018066,173.675690 
	C363.608673,170.356857 364.390289,166.710068 365.508179,162.973053 
z"/>
<path fill="#828282" opacity="1.000000" stroke="none" 
	d="
M585.331421,485.370178 
	C587.784546,485.047455 590.565552,484.917084 593.675110,484.978790 
	C591.222168,485.301422 588.440735,485.431946 585.331421,485.370178 
z"/>
<path fill="#828282" opacity="1.000000" stroke="none" 
	d="
M687.668823,123.455353 
	C685.540527,124.066429 683.093689,124.468002 680.329468,124.663666 
	C682.458130,124.053780 684.904236,123.649818 687.668823,123.455353 
z"/>
<path fill="#828282" opacity="1.000000" stroke="none" 
	d="
M469.678375,175.993988 
	C467.381683,176.169662 464.756317,176.104584 461.893066,175.780731 
	C464.220001,175.599045 466.784882,175.676132 469.678375,175.993988 
z"/>
<path fill="#828282" opacity="1.000000" stroke="none" 
	d="
M506.675842,179.000580 
	C504.381897,179.173203 501.756378,179.109802 498.891296,178.789276 
	C501.215912,178.609634 503.780060,178.687103 506.675842,179.000580 
z"/>
<path fill="#828282" opacity="1.000000" stroke="none" 
	d="
M647.953613,127.444839 
	C646.100830,128.013199 643.841492,128.395172 641.293579,128.566040 
	C643.185669,127.989449 645.366333,127.623947 647.953613,127.444839 
z"/>
<path fill="#828282" opacity="1.000000" stroke="none" 
	d="
M567.673950,183.964813 
	C565.706482,184.158325 563.406677,184.118713 560.870239,183.830688 
	C562.869568,183.632080 565.105591,183.681885 567.673950,183.964813 
z"/>
<path fill="#828282" opacity="1.000000" stroke="none" 
	d="
M579.676270,184.943542 
	C577.705994,185.135361 575.406189,185.091492 572.878052,184.791351 
	C574.882080,184.592667 577.114502,184.650269 579.676270,184.943542 
z"/>
<path fill="#828282" opacity="1.000000" stroke="none" 
	d="
M604.672302,186.973053 
	C602.705933,187.164566 600.405090,187.125992 597.867554,186.839310 
	C599.866577,186.641800 602.102173,186.692383 604.672302,186.973053 
z"/>
<path fill="#828282" opacity="1.000000" stroke="none" 
	d="
M517.682373,140.467133 
	C515.861877,141.051300 513.736938,141.425629 511.308441,141.590485 
	C513.129211,141.006439 515.253601,140.631851 517.682373,140.467133 
z"/>
<path fill="#828282" opacity="1.000000" stroke="none" 
	d="
M547.974548,137.446396 
	C546.064514,138.016876 543.766846,138.399307 541.087036,138.590408 
	C542.998901,138.018845 545.292908,137.638596 547.974548,137.446396 
z"/>
<path fill="#828282" opacity="1.000000" stroke="none" 
	d="
M557.946655,136.424652 
	C556.097778,136.998856 553.840698,137.392929 551.294189,137.575928 
	C553.182617,136.991394 555.360596,136.617966 557.946655,136.424652 
z"/>
<path fill="#828282" opacity="1.000000" stroke="none" 
	d="
M677.953857,124.442612 
	C676.098755,125.009987 673.837830,125.388657 671.290771,125.553253 
	C673.185791,124.977432 675.367004,124.615669 677.953857,124.442612 
z"/>
<path fill="#828282" opacity="1.000000" stroke="none" 
	d="
M667.953979,125.442574 
	C666.099487,126.012596 663.839050,126.393959 661.291748,126.561905 
	C663.185913,125.983627 665.366943,125.618767 667.953979,125.442574 
z"/>
<path fill="#828282" opacity="1.000000" stroke="none" 
	d="
M657.952148,126.435272 
	C656.098633,127.007202 653.838928,127.391373 651.292114,127.562378 
	C653.185242,126.981987 655.365601,126.614754 657.952148,126.435272 
z"/>
<path fill="#828282" opacity="1.000000" stroke="none" 
	d="
M567.955994,135.444855 
	C566.103699,136.018906 563.845764,136.404083 561.296509,136.581543 
	C563.186890,136.001205 565.368591,135.628586 567.955994,135.444855 
z"/>
<path fill="#828282" opacity="1.000000" stroke="none" 
	d="
M637.951782,128.434998 
	C636.099365,129.007401 633.840759,129.392334 631.293579,129.566101 
	C633.185181,128.985809 635.365356,128.616669 637.951782,128.434998 
z"/>
<path fill="#828282" opacity="1.000000" stroke="none" 
	d="
M627.954346,129.443329 
	C626.100891,130.015823 623.841370,130.399963 621.293457,130.572388 
	C623.186096,129.992111 625.367249,129.623550 627.954346,129.443329 
z"/>
<path fill="#828282" opacity="1.000000" stroke="none" 
	d="
M617.956665,130.447968 
	C616.101746,131.020569 613.841797,131.402405 611.293396,131.572845 
	C613.187195,130.993362 615.369446,130.625290 617.956665,130.447968 
z"/>
<path fill="#828282" opacity="1.000000" stroke="none" 
	d="
M505.926422,570.893188 
	C507.198547,570.293457 508.695068,569.948608 510.380798,569.165771 
	C512.119690,570.101624 512.813293,571.449463 509.970734,571.794800 
	C508.741730,571.944092 507.426758,571.385315 505.926422,570.893188 
z"/>
<path fill="#828282" opacity="1.000000" stroke="none" 
	d="
M607.954590,131.443039 
	C606.100891,132.016174 603.841492,132.400665 601.293457,132.573608 
	C603.186218,131.992813 605.367554,131.623596 607.954590,131.443039 
z"/>
<path fill="#828282" opacity="1.000000" stroke="none" 
	d="
M597.955566,132.444687 
	C596.101562,133.019226 593.841675,133.404831 591.293457,133.578415 
	C593.186584,132.996170 595.368164,132.625961 597.955566,132.444687 
z"/>
<path fill="#828282" opacity="1.000000" stroke="none" 
	d="
M587.948975,133.432312 
	C586.098755,134.004486 583.840820,134.395004 581.293823,134.574127 
	C583.183594,133.992035 585.362427,133.621338 587.948975,133.432312 
z"/>
<path fill="#828282" opacity="1.000000" stroke="none" 
	d="
M577.955994,134.444794 
	C576.102051,135.019455 573.842529,135.405228 571.293945,135.579681 
	C573.186707,134.997543 575.368530,134.626740 577.955994,134.444794 
z"/>
<path fill="#828282" opacity="1.000000" stroke="none" 
	d="
M542.677917,181.934235 
	C540.705444,182.128860 538.405640,182.084976 535.880005,181.782471 
	C537.886292,181.581146 540.118408,181.638428 542.677917,181.934235 
z"/>
<path fill="#828282" opacity="1.000000" stroke="none" 
	d="
M527.695129,139.466568 
	C525.824280,140.042938 523.662231,140.413544 521.102905,140.592422 
	C522.938416,140.020721 525.171204,139.640762 527.695129,139.466568 
z"/>
<path fill="#828282" opacity="1.000000" stroke="none" 
	d="
M507.958069,141.446625 
	C506.104919,142.021194 503.846710,142.406799 501.296478,142.584900 
	C503.187317,142.004150 505.370148,141.630905 507.958069,141.446625 
z"/>
<path fill="#828282" opacity="1.000000" stroke="none" 
	d="
M428.927185,149.358917 
	C427.083984,149.926651 424.833252,150.319168 422.292236,150.503265 
	C424.174530,149.924454 426.347107,149.554077 428.927185,149.358917 
z"/>
<path fill="#828282" opacity="1.000000" stroke="none" 
	d="
M418.930328,150.366531 
	C417.085846,150.932968 414.834412,151.322678 412.292389,151.504547 
	C414.175659,150.927734 416.349518,150.558762 418.930328,150.366531 
z"/>
<path fill="#828282" opacity="1.000000" stroke="none" 
	d="
M408.930603,151.368866 
	C407.086456,151.933426 404.834930,152.322937 402.292603,152.504578 
	C404.175598,151.929077 406.349396,151.561432 408.930603,151.368866 
z"/>
<path fill="#828282" opacity="1.000000" stroke="none" 
	d="
M398.931213,152.367020 
	C397.086731,152.933624 394.835449,153.323318 392.292969,153.505814 
	C394.175995,152.929123 396.350189,152.559616 398.931213,152.367020 
z"/>
<path fill="#828282" opacity="1.000000" stroke="none" 
	d="
M388.926941,153.359085 
	C387.087311,153.930649 384.839783,154.327118 382.297180,154.522614 
	C384.174408,153.942429 386.346710,153.563217 388.926941,153.359085 
z"/>
<path fill="#828282" opacity="1.000000" stroke="none" 
	d="
M537.696228,138.463165 
	C535.824280,139.041840 533.661926,139.412537 531.102417,139.591614 
	C532.938782,139.018387 535.172302,138.636780 537.696228,138.463165 
z"/>
<path fill="#828282" opacity="1.000000" stroke="none" 
	d="
M481.677429,176.973511 
	C479.704498,177.172653 477.402649,177.133102 474.865112,176.843369 
	C476.869141,176.640411 479.108795,176.687622 481.677429,176.973511 
z"/>
<path fill="#828282" opacity="1.000000" stroke="none" 
	d="
M555.672607,182.986511 
	C553.704773,183.180191 551.402466,183.143311 548.862183,182.858826 
	C550.862183,182.659454 553.100159,182.707718 555.672607,182.986511 
z"/>
<path fill="#828282" opacity="1.000000" stroke="none" 
	d="
M518.676880,179.986298 
	C516.704285,180.182938 514.401611,180.142227 511.862946,179.851715 
	C513.866882,179.650925 516.106812,179.699936 518.676880,179.986298 
z"/>
<path fill="#828282" opacity="1.000000" stroke="none" 
	d="
M493.679413,177.950333 
	C491.705688,178.150757 489.405731,178.109421 486.872803,177.815536 
	C488.877625,177.611526 491.115417,177.660049 493.679413,177.950333 
z"/>
<path fill="#828282" opacity="1.000000" stroke="none" 
	d="
M530.677124,180.954437 
	C528.705078,181.151550 526.404358,181.111115 523.871033,180.817810 
	C525.875122,180.615585 528.111694,180.666229 530.677124,180.954437 
z"/>
<path fill="#828282" opacity="1.000000" stroke="none" 
	d="
M497.973877,142.449753 
	C496.423187,142.992599 494.482849,143.348068 492.272308,143.491577 
	C493.862823,142.940536 495.723541,142.601456 497.973877,142.449753 
z"/>
<path fill="#828282" opacity="1.000000" stroke="none" 
	d="
M487.698242,143.469177 
	C486.182068,144.021774 484.377625,144.364288 482.287750,144.495041 
	C483.804871,143.941895 485.607422,143.600494 487.698242,143.469177 
z"/>
<path fill="#828282" opacity="1.000000" stroke="none" 
	d="
M477.698212,144.469177 
	C476.182007,145.023880 474.377502,145.368515 472.287659,145.501099 
	C473.804810,144.945755 475.607391,144.602432 477.698212,144.469177 
z"/>
<path fill="#828282" opacity="1.000000" stroke="none" 
	d="
M467.696442,145.472870 
	C466.182281,146.024109 464.378143,146.368973 462.288055,146.502441 
	C463.803558,145.949539 465.605011,145.608032 467.696442,145.472870 
z"/>
<path fill="#828282" opacity="1.000000" stroke="none" 
	d="
M457.698273,146.471344 
	C456.182617,147.024994 454.378845,147.368988 452.288635,147.501984 
	C453.804840,146.947876 455.607513,146.604767 457.698273,146.471344 
z"/>
<path fill="#828282" opacity="1.000000" stroke="none" 
	d="
M447.977570,147.459534 
	C446.426697,148.004303 444.486603,148.360306 442.274353,148.506470 
	C443.864227,147.954681 445.726288,147.612717 447.977570,147.459534 
z"/>
<path fill="#828282" opacity="1.000000" stroke="none" 
	d="
M437.977814,148.459549 
	C436.427002,149.002594 434.487183,149.356903 432.274719,149.502106 
	C433.864319,148.952271 435.726562,148.611542 437.977814,148.459549 
z"/>
<path fill="#828282" opacity="1.000000" stroke="none" 
	d="
M497.915527,569.875610 
	C499.604095,569.702271 501.504791,569.781372 503.699371,570.134644 
	C502.038025,570.315247 500.082855,570.221619 497.915527,569.875610 
z"/>
<path fill="#828282" opacity="1.000000" stroke="none" 
	d="
M489.917969,568.863464 
	C491.606201,568.690674 493.506531,568.770264 495.700378,569.124512 
	C494.039246,569.304688 492.084686,569.210266 489.917969,568.863464 
z"/>
<path fill="#828282" opacity="1.000000" stroke="none" 
	d="
M481.918243,567.850220 
	C483.608521,567.675171 485.508759,567.754272 487.701660,568.108521 
	C486.038971,568.290466 484.083588,568.197388 481.918243,567.850220 
z"/>
<path fill="#828282" opacity="1.000000" stroke="none" 
	d="
M473.918213,566.851746 
	C475.608704,566.671021 477.509583,566.744141 479.702789,567.092896 
	C478.039581,567.280823 476.084106,567.193176 473.918213,566.851746 
z"/>
<path fill="#828282" opacity="1.000000" stroke="none" 
	d="
M457.919891,564.825439 
	C459.612549,564.642517 461.510925,564.717651 463.702881,565.066162 
	C462.039520,565.254272 460.082550,565.168884 457.919891,564.825439 
z"/>
<path fill="#828282" opacity="1.000000" stroke="none" 
	d="
M449.919922,563.817871 
	C451.614136,563.630981 453.512054,563.704163 455.703430,564.050598 
	C454.039154,564.241882 452.081390,564.159912 449.919922,563.817871 
z"/>
<path fill="#828282" opacity="1.000000" stroke="none" 
	d="
M591.676941,185.924530 
	C590.028015,186.145111 588.051086,186.129410 585.846680,185.872070 
	C587.529053,185.649689 589.439026,185.668976 591.676941,185.924530 
z"/>
<path fill="#828282" opacity="1.000000" stroke="none" 
	d="
M402.913971,557.867676 
	C404.607086,557.683716 406.510559,557.752991 408.703796,558.101440 
	C407.037170,558.294006 405.080750,558.207520 402.913971,557.867676 
z"/>
<path fill="#828282" opacity="1.000000" stroke="none" 
	d="
M616.673523,187.950211 
	C615.027344,188.165344 613.048767,188.150513 610.841370,187.895386 
	C612.522095,187.676804 614.431580,187.698532 616.673523,187.950211 
z"/>
<path fill="#828282" opacity="1.000000" stroke="none" 
	d="
M628.688354,189.001572 
	C627.028870,189.203613 625.049316,189.154999 622.845642,188.863739 
	C624.537109,188.664368 626.452698,188.707642 628.688354,189.001572 
z"/>
<path fill="#828282" opacity="1.000000" stroke="none" 
	d="
M466.897095,565.925903 
	C468.271393,565.725830 469.846375,565.771423 471.708618,566.088257 
	C470.363190,566.296875 468.730499,566.234192 466.897095,565.925903 
z"/>
<path fill="#828282" opacity="1.000000" stroke="none" 
	d="
M576.270203,486.322296 
	C577.524231,485.839935 579.045471,485.531677 580.929077,485.397278 
	C579.706787,485.879578 578.122131,486.187988 576.270203,486.322296 
z"/>
<path fill="#828282" opacity="1.000000" stroke="none" 
	d="
M600.894165,485.834778 
	C602.258301,485.611572 603.805420,485.645050 605.677429,485.894958 
	C604.360596,486.104736 602.718811,486.098083 600.894165,485.834778 
z"/>
<path fill="#828282" opacity="1.000000" stroke="none" 
	d="
M380.009155,154.394730 
	C378.686829,155.246567 377.036255,155.945328 375.048096,156.549896 
	C376.367310,155.717682 378.024139,154.979675 380.009155,154.394730 
z"/>
<path fill="#828282" opacity="1.000000" stroke="none" 
	d="
M362.642792,536.229858 
	C363.123260,537.195007 363.402130,538.386658 363.555115,539.934875 
	C363.099854,539.013123 362.770508,537.734741 362.642792,536.229858 
z"/>
<path fill="#828282" opacity="1.000000" stroke="none" 
	d="
M714.398254,133.767151 
	C713.576172,132.831009 712.912170,131.666656 712.252319,130.162201 
	C713.023132,131.061035 713.789734,132.300003 714.398254,133.767151 
z"/>
<path fill="#828282" opacity="1.000000" stroke="none" 
	d="
M569.245850,487.337738 
	C570.201843,486.856415 571.400269,486.546661 572.944458,486.399628 
	C572.022949,486.878021 570.755554,487.193634 569.245850,487.337738 
z"/>
<path fill="#828282" opacity="1.000000" stroke="none" 
	d="
M708.246582,509.910767 
	C708.702698,508.947815 709.492737,507.984558 710.597473,506.966736 
	C710.134949,507.911591 709.357727,508.911011 708.246582,509.910767 
z"/>
<path fill="#828282" opacity="1.000000" stroke="none" 
	d="
M613.842651,487.727417 
	C614.650391,487.549133 615.560059,487.629456 616.736206,487.945801 
	C615.983276,488.116577 614.963928,488.051331 613.842651,487.727417 
z"/>
<path fill="#828282" opacity="1.000000" stroke="none" 
	d="
M608.832886,486.840637 
	C609.618347,486.628937 610.530762,486.660278 611.722839,486.914307 
	C610.988281,487.119232 609.974060,487.101440 608.832886,486.840637 
z"/>
<path fill="#828282" opacity="1.000000" stroke="none" 
	d="
M635.099792,191.404022 
	C634.450806,191.441849 633.709473,191.173584 632.851562,190.621796 
	C633.492432,190.591507 634.249939,190.844727 635.099792,191.404022 
z"/>
<path fill="#828282" opacity="1.000000" stroke="none" 
	d="
M709.102539,126.436661 
	C708.444763,126.432541 707.715210,126.117737 706.904175,125.500809 
	C707.558716,125.507774 708.294739,125.816872 709.102539,126.436661 
z"/>
<path fill="#828282" opacity="1.000000" stroke="none" 
	d="
M636.850525,495.733643 
	C637.502380,495.679382 638.259521,495.918304 639.114014,496.455200 
	C638.459534,496.511078 637.707642,496.268951 636.850525,495.733643 
z"/>
<path fill="#828282" opacity="1.000000" stroke="none" 
	d="
M536.054382,499.707581 
	C536.335815,499.150085 536.928284,498.626434 537.829468,498.147888 
	C537.547180,498.709167 536.956299,499.225311 536.054382,499.707581 
z"/>
<path fill="#828282" opacity="1.000000" stroke="none" 
	d="
M531.117798,502.786072 
	C531.375793,502.230347 531.945312,501.684692 532.826721,501.165222 
	C532.568848,501.726318 531.999084,502.261200 531.117798,502.786072 
z"/>
<path fill="#828282" opacity="1.000000" stroke="none" 
	d="
M522.228149,509.905823 
	C522.419250,509.305847 522.924988,508.699158 523.741455,508.077454 
	C523.549011,508.674652 523.045898,509.286865 522.228149,509.905823 
z"/>
<path fill="#828282" opacity="1.000000" stroke="none" 
	d="
M643.620361,203.042557 
	C643.142212,202.637390 642.787048,201.951370 642.541687,200.979340 
	C643.015442,201.382797 643.379395,202.072266 643.620361,203.042557 
z"/>
<path fill="#242424" opacity="1.000000" stroke="none" 
	d="
M334.031219,689.024414 
	C336.070740,682.974548 337.935364,677.288635 339.929108,671.648438 
	C340.533325,669.939148 341.121155,667.931396 342.384766,666.820312 
	C344.059784,665.347473 346.852936,663.368042 348.316193,663.907959 
	C349.941132,664.507629 351.947601,668.098328 351.470398,669.693359 
	C349.014771,677.901428 346.165619,686.046143 342.626343,693.837097 
	C341.747437,695.771851 337.351562,697.774353 335.349915,697.170105 
	C331.728333,696.076721 333.201752,692.292847 334.031219,689.024414 
z"/>
<path fill="#212121" opacity="1.000000" stroke="none" 
	d="
M533.963440,663.895508 
	C539.113647,662.488586 541.075073,665.886475 540.150818,669.196533 
	C537.765686,677.738403 534.645142,686.124146 531.080933,694.248840 
	C530.302185,696.024231 526.451111,696.451904 524.014954,697.500244 
	C523.538452,694.963989 522.179993,692.204651 522.754395,689.934265 
	C524.338867,683.671326 526.526123,677.531921 528.898438,671.510437 
	C529.955627,668.826965 532.028625,666.543701 533.963440,663.895508 
z"/>
<path fill="#2D2D2D" opacity="1.000000" stroke="none" 
	d="
M419.364319,665.608521 
	C416.588745,673.354065 410.356293,671.699402 404.346252,671.724854 
	C405.144104,666.477417 407.568268,662.597412 412.540955,661.008545 
	C416.041901,659.889893 419.234192,660.447876 419.364319,665.608521 
z"/>
<path fill="#2C2C2C" opacity="1.000000" stroke="none" 
	d="
M471.221771,671.708923 
	C469.698456,671.712769 468.597565,671.712769 467.496704,671.712769 
	C467.127075,671.328552 466.757446,670.944397 466.387817,670.560181 
	C468.949921,667.550354 471.100006,663.941406 474.244659,661.778503 
	C475.862793,660.665527 479.252869,662.128723 481.842224,662.427856 
	C481.101410,664.923706 481.081482,668.243103 479.425140,669.693054 
	C477.624298,671.269409 474.302734,671.108521 471.221771,671.708923 
z"/>
<path fill="#2C2C2C" opacity="1.000000" stroke="none" 
	d="
M267.668823,732.092834 
	C265.833954,735.898865 264.505188,739.837524 261.904541,742.562378 
	C260.562042,743.968994 255.849640,744.383911 254.608780,743.201599 
	C251.997818,740.713684 253.819366,737.244141 256.530609,735.758667 
	C259.947784,733.886536 263.916840,733.021729 267.668823,732.092834 
z"/>
<path fill="#343434" opacity="1.000000" stroke="none" 
	d="
M818.341248,684.418335 
	C819.078796,688.153015 820.042725,691.512268 820.069397,694.878906 
	C820.099487,698.682861 817.813782,701.422363 814.119812,702.587402 
	C810.401428,703.760132 807.041138,703.031494 804.522400,700.681091 
	C807.930664,698.360962 812.115601,696.809326 814.097107,693.804688 
	C816.148621,690.693787 816.062988,686.173401 816.886597,682.386902 
	C816.963135,682.487183 817.558411,683.266724 818.341248,684.418335 
z"/>
<path fill="#343434" opacity="1.000000" stroke="none" 
	d="
M814.365845,679.260559 
	C815.282898,679.264648 815.995728,679.576416 816.708496,679.888123 
	C816.341980,680.290283 815.975464,680.692444 815.609009,681.094604 
	C815.126526,680.585815 814.644043,680.077026 814.365845,679.260559 
z"/>
</svg>